<?xml version="1.0" encoding="UTF-8"?>
<svg id="Layer_2" data-name="Layer 2" xmlns="http://www.w3.org/2000/svg" viewBox="0 0 202.84 217.24">
  <defs>
    <style>
      .cls-1 {
        fill: #231f20;
      }
    </style>
  </defs>
  <g id="Layer_1-2" data-name="Layer 1">
    <g>
      <path class="cls-1" d="m32.72,108.62c0,.45-.37.82-.82.82s-.82-.37-.82-.82.37-.82.82-.82.82.37.82.82"/>
      <path class="cls-1" d="m27.96,108.62c0,.45-.37.82-.82.82s-.82-.37-.82-.82.37-.82.82-.82.82.37.82.82"/>
      <path class="cls-1" d="m30.88,108.62c0,.45-.37.82-.82.82s-.82-.37-.82-.82.37-.82.82-.82.82.37.82.82"/>
      <path class="cls-1" d="m33.56,108.62c0,.45-.37.82-.82.82s-.82-.37-.82-.82.37-.82.82-.82.82.37.82.82"/>
      <path class="cls-1" d="m193.58,169.61c0,.45-.37.82-.82.82s-.82-.37-.82-.82.37-.82.82-.82.82.37.82.82"/>
      <path class="cls-1" d="m31.2,50.31c0,.45-.37.82-.82.82s-.82-.37-.82-.82.37-.82.82-.82.82.37.82.82"/>
      <path class="cls-1" d="m19.9,70.49c0,.45-.37.82-.82.82s-.82-.37-.82-.82.37-.82.82-.82.82.37.82.82"/>
      <path class="cls-1" d="m9.5,102.1c0,.45-.37.82-.82.82s-.82-.37-.82-.82.37-.82.82-.82.82.37.82.82"/>
      <path class="cls-1" d="m6.85,119.4c0,.45-.37.82-.82.82s-.82-.37-.82-.82.37-.82.82-.82.82.37.82.82"/>
      <path class="cls-1" d="m7.41,133.36c0,.45-.37.82-.82.82s-.82-.37-.82-.82.37-.82.82-.82.82.37.82.82"/>
      <path class="cls-1" d="m8.25,127.35c0,.45-.37.82-.82.82s-.82-.37-.82-.82.37-.82.82-.82.82.37.82.82"/>
      <path class="cls-1" d="m7.77,98.81c0,.45-.37.82-.82.82s-.82-.37-.82-.82.37-.82.82-.82.82.37.82.82"/>
      <path class="cls-1" d="m12.95,82.05c0,.45-.37.82-.82.82s-.82-.37-.82-.82.37-.82.82-.82.82.37.82.82"/>
      <path class="cls-1" d="m14.3,79.97c0,.45-.37.82-.82.82s-.82-.37-.82-.82.37-.82.82-.82.82.37.82.82"/>
      <path class="cls-1" d="m13.02,87.08c0,.45-.37.82-.82.82s-.82-.37-.82-.82.37-.82.82-.82.82.37.82.82"/>
      <path class="cls-1" d="m12.16,120.96c0,.45-.37.82-.82.82s-.82-.37-.82-.82.37-.82.82-.82.82.37.82.82"/>
      <path class="cls-1" d="m14.59,128.03c0,.45-.37.82-.82.82s-.82-.37-.82-.82.37-.82.82-.82.82.37.82.82"/>
      <path class="cls-1" d="m17.08,106.15c0,.45-.37.82-.82.82s-.82-.37-.82-.82.37-.82.82-.82.82.37.82.82"/>
      <path class="cls-1" d="m24.24,79.82c0,.45-.37.82-.82.82s-.82-.37-.82-.82.37-.82.82-.82.82.37.82.82"/>
      <path class="cls-1" d="m25.76,77.08c0,.45-.37.82-.82.82s-.82-.37-.82-.82.37-.82.82-.82.82.37.82.82"/>
      <path class="cls-1" d="m19.42,102.26c0,.45-.37.82-.82.82s-.82-.37-.82-.82.37-.82.82-.82.82.37.82.82"/>
      <path class="cls-1" d="m17.69,131.79c0,.45-.37.82-.82.82s-.82-.37-.82-.82.37-.82.82-.82.82.37.82.82"/>
      <path class="cls-1" d="m18.69,147.29c0,.45-.37.82-.82.82s-.82-.37-.82-.82.37-.82.82-.82.82.37.82.82"/>
      <path class="cls-1" d="m23.74,161.82c0,.45-.37.82-.82.82s-.82-.37-.82-.82.37-.82.82-.82.82.37.82.82"/>
      <path class="cls-1" d="m28.76,173.2c0,.45-.37.82-.82.82s-.82-.37-.82-.82.37-.82.82-.82.82.37.82.82"/>
      <path class="cls-1" d="m31.15,172.64c0,.45-.37.82-.82.82s-.82-.37-.82-.82.37-.82.82-.82.82.37.82.82"/>
      <path class="cls-1" d="m14.27,147.49c0,.45-.37.82-.82.82s-.82-.37-.82-.82.37-.82.82-.82.82.37.82.82"/>
      <path class="cls-1" d="m9.84,118c0,.45-.37.82-.82.82s-.82-.37-.82-.82.37-.82.82-.82.82.37.82.82"/>
      <path class="cls-1" d="m9.57,111.05c0,.45-.37.82-.82.82s-.82-.37-.82-.82.37-.82.82-.82.82.37.82.82"/>
      <path class="cls-1" d="m25.37,148.32c0,.45-.37.82-.82.82s-.82-.37-.82-.82.37-.82.82-.82.82.37.82.82"/>
      <path class="cls-1" d="m42.93,170.84c0,.45-.37.82-.82.82s-.82-.37-.82-.82.37-.82.82-.82.82.37.82.82"/>
      <path class="cls-1" d="m57.33,181.73c0,.45-.37.82-.82.82s-.82-.37-.82-.82.37-.82.82-.82.82.37.82.82"/>
      <path class="cls-1" d="m68.83,187.94c0,.45-.37.82-.82.82s-.82-.37-.82-.82.37-.82.82-.82.82.37.82.82"/>
      <path class="cls-1" d="m84.7,195.22c0,.45-.37.82-.82.82s-.82-.37-.82-.82.37-.82.82-.82.82.37.82.82"/>
      <path class="cls-1" d="m96.72,199.82c0,.45-.37.82-.82.82s-.82-.37-.82-.82.37-.82.82-.82.82.37.82.82"/>
      <path class="cls-1" d="m147.71,201.81c0,.45-.37.82-.82.82s-.82-.37-.82-.82.37-.82.82-.82.82.37.82.82"/>
      <path class="cls-1" d="m170.02,201.41c0,.45-.37.82-.82.82s-.82-.37-.82-.82.37-.82.82-.82.82.37.82.82"/>
      <path class="cls-1" d="m185.68,194.46c0,.45-.37.82-.82.82s-.82-.37-.82-.82.37-.82.82-.82.82.37.82.82"/>
      <path class="cls-1" d="m196.29,184.29c0,.45-.37.82-.82.82s-.82-.37-.82-.82.37-.82.82-.82.82.37.82.82"/>
      <path class="cls-1" d="m198.08,178.25c0,.45-.37.82-.82.82s-.82-.37-.82-.82.37-.82.82-.82.82.37.82.82"/>
      <path class="cls-1" d="m199.6,173.7c0,.45-.37.82-.82.82s-.82-.37-.82-.82.37-.82.82-.82.82.37.82.82"/>
      <path class="cls-1" d="m197.99,173.69c0,.45-.37.82-.82.82s-.82-.37-.82-.82.37-.82.82-.82.82.37.82.82"/>
      <path class="cls-1" d="m188.84,187.04c0,.45-.37.82-.82.82s-.82-.37-.82-.82.37-.82.82-.82.82.37.82.82"/>
      <path class="cls-1" d="m156.26,201.33c0,.45-.37.82-.82.82s-.82-.37-.82-.82.37-.82.82-.82.82.37.82.82"/>
      <path class="cls-1" d="m86.81,207.48c0,.45-.37.82-.82.82s-.82-.37-.82-.82.37-.82.82-.82.82.37.82.82"/>
      <path class="cls-1" d="m71.22,201.97c0,.45-.37.82-.82.82s-.82-.37-.82-.82.37-.82.82-.82.82.37.82.82"/>
      <path class="cls-1" d="m49.97,184.98c0,.45-.37.82-.82.82s-.82-.37-.82-.82.37-.82.82-.82.82.37.82.82"/>
      <path class="cls-1" d="m35.86,163.2c0,.45-.37.82-.82.82s-.82-.37-.82-.82.37-.82.82-.82.82.37.82.82"/>
      <path class="cls-1" d="m26.36,144.33c0,.45-.37.82-.82.82s-.82-.37-.82-.82.37-.82.82-.82.82.37.82.82"/>
      <path class="cls-1" d="m18.6,124.13c0,.45-.37.82-.82.82s-.82-.37-.82-.82.37-.82.82-.82.82.37.82.82"/>
      <path class="cls-1" d="m15.42,107.56c0,.45-.37.82-.82.82s-.82-.37-.82-.82.37-.82.82-.82.82.37.82.82"/>
      <path class="cls-1" d="m17.27,88.43c0,.45-.37.82-.82.82s-.82-.37-.82-.82.37-.82.82-.82.82.37.82.82"/>
      <path class="cls-1" d="m25.49,68.88c0,.45-.37.82-.82.82s-.82-.37-.82-.82.37-.82.82-.82.82.37.82.82"/>
      <path class="cls-1" d="m34.61,55.9c0,.45-.37.82-.82.82s-.82-.37-.82-.82.37-.82.82-.82.82.37.82.82"/>
      <path class="cls-1" d="m43.56,44.5c0,.45-.37.82-.82.82s-.82-.37-.82-.82.37-.82.82-.82.82.37.82.82"/>
      <path class="cls-1" d="m53.7,33.73c0,.45-.37.82-.82.82s-.82-.37-.82-.82.37-.82.82-.82.82.37.82.82"/>
      <path class="cls-1" d="m67.73,25.35c0,.45-.37.82-.82.82s-.82-.37-.82-.82.37-.82.82-.82.82.37.82.82"/>
      <path class="cls-1" d="m77.88,21.43c0,.45-.37.82-.82.82s-.82-.37-.82-.82.37-.82.82-.82.82.37.82.82"/>
      <path class="cls-1" d="m91.83,17.92c0,.45-.37.82-.82.82s-.82-.37-.82-.82.37-.82.82-.82.82.37.82.82"/>
      <path class="cls-1" d="m108.61,14.83c0,.45-.37.82-.82.82s-.82-.37-.82-.82.37-.82.82-.82.82.37.82.82"/>
      <path class="cls-1" d="m121.79,15.06c0,.45-.37.82-.82.82s-.82-.37-.82-.82.37-.82.82-.82.82.37.82.82"/>
      <path class="cls-1" d="m139.57,15.36c0,.45-.37.82-.82.82s-.82-.37-.82-.82.37-.82.82-.82.82.37.82.82"/>
      <path class="cls-1" d="m159.08,21.62c0,.45-.37.82-.82.82s-.82-.37-.82-.82.37-.82.82-.82.82.37.82.82"/>
      <path class="cls-1" d="m174.2,28.65c0,.45-.37.82-.82.82s-.82-.37-.82-.82.37-.82.82-.82.82.37.82.82"/>
      <path class="cls-1" d="m187.66,37.4c0,.45-.37.82-.82.82s-.82-.37-.82-.82.37-.82.82-.82.82.37.82.82"/>
      <path class="cls-1" d="m198.37,50.71c0,.45-.37.82-.82.82s-.82-.37-.82-.82.37-.82.82-.82.82.37.82.82"/>
      <path class="cls-1" d="m202.84,60.7c0,.45-.37.82-.82.82s-.82-.37-.82-.82.37-.82.82-.82.82.37.82.82"/>
      <path class="cls-1" d="m201.37,58.75c0,.45-.37.82-.82.82s-.82-.37-.82-.82.37-.82.82-.82.82.37.82.82"/>
      <path class="cls-1" d="m188.96,47.6c0,.45-.37.82-.82.82s-.82-.37-.82-.82.37-.82.82-.82.82.37.82.82"/>
      <path class="cls-1" d="m176.72,39.18c0,.45-.37.82-.82.82s-.82-.37-.82-.82.37-.82.82-.82.82.37.82.82"/>
      <path class="cls-1" d="m159.58,30.8c0,.45-.37.82-.82.82s-.82-.37-.82-.82.37-.82.82-.82.82.37.82.82"/>
      <path class="cls-1" d="m145.3,24.08c0,.45-.37.82-.82.82s-.82-.37-.82-.82.37-.82.82-.82.82.37.82.82"/>
      <path class="cls-1" d="m124.74,19.91c0,.45-.37.82-.82.82s-.82-.37-.82-.82.37-.82.82-.82.82.37.82.82"/>
      <path class="cls-1" d="m110.32,17.44c0,.45-.37.82-.82.82s-.82-.37-.82-.82.37-.82.82-.82.82.37.82.82"/>
      <path class="cls-1" d="m94.3,16.3c0,.45-.37.82-.82.82s-.82-.37-.82-.82.37-.82.82-.82.82.37.82.82"/>
      <path class="cls-1" d="m82.53,19.32c0,.45-.37.82-.82.82s-.82-.37-.82-.82.37-.82.82-.82.82.37.82.82"/>
      <path class="cls-1" d="m61.73,32.49c0,.45-.37.82-.82.82s-.82-.37-.82-.82.37-.82.82-.82.82.37.82.82"/>
      <path class="cls-1" d="m48.44,42.85c0,.45-.37.82-.82.82s-.82-.37-.82-.82.37-.82.82-.82.82.37.82.82"/>
      <path class="cls-1" d="m40.62,54.87c0,.45-.37.82-.82.82s-.82-.37-.82-.82.37-.82.82-.82.82.37.82.82"/>
      <path class="cls-1" d="m34.13,69.34c0,.45-.37.82-.82.82s-.82-.37-.82-.82.37-.82.82-.82.82.37.82.82"/>
      <path class="cls-1" d="m32.31,74.55c0,.45-.37.82-.82.82s-.82-.37-.82-.82.37-.82.82-.82.82.37.82.82"/>
      <path class="cls-1" d="m30.71,61.53c0,.45-.37.82-.82.82s-.82-.37-.82-.82.37-.82.82-.82.82.37.82.82"/>
      <path class="cls-1" d="m40.6,41.37c0,.45-.37.82-.82.82s-.82-.37-.82-.82.37-.82.82-.82.82.37.82.82"/>
      <path class="cls-1" d="m60.16,30.11c0,.45-.37.82-.82.82s-.82-.37-.82-.82.37-.82.82-.82.82.37.82.82"/>
      <path class="cls-1" d="m64.35,26.24c0,.45-.37.82-.82.82s-.82-.37-.82-.82.37-.82.82-.82.82.37.82.82"/>
      <path class="cls-1" d="m65.95,26.89c0,.45-.37.82-.82.82s-.82-.37-.82-.82.37-.82.82-.82.82.37.82.82"/>
      <path class="cls-1" d="m52.04,31.09c0,.45-.37.82-.82.82s-.82-.37-.82-.82.37-.82.82-.82.82.37.82.82"/>
      <path class="cls-1" d="m29.38,42.37c0,.45-.37.82-.82.82s-.82-.37-.82-.82.37-.82.82-.82.82.37.82.82"/>
      <path class="cls-1" d="m24.11,49.05c0,.45-.37.82-.82.82s-.82-.37-.82-.82.37-.82.82-.82.82.37.82.82"/>
      <path class="cls-1" d="m18.15,60.33c0,.45-.37.82-.82.82s-.82-.37-.82-.82.37-.82.82-.82.82.37.82.82"/>
      <path class="cls-1" d="m13.73,70.63c0,.45-.37.82-.82.82s-.82-.37-.82-.82.37-.82.82-.82.82.37.82.82"/>
      <path class="cls-1" d="m11.13,79.31c0,.45-.37.82-.82.82s-.82-.37-.82-.82.37-.82.82-.82.82.37.82.82"/>
      <path class="cls-1" d="m9.42,95.26c0,.45-.37.82-.82.82s-.82-.37-.82-.82.37-.82.82-.82.82.37.82.82"/>
      <path class="cls-1" d="m7.51,107.21c0,.45-.37.82-.82.82s-.82-.37-.82-.82.37-.82.82-.82.82.37.82.82"/>
      <path class="cls-1" d="m7.53,122.04c0,.45-.37.82-.82.82s-.82-.37-.82-.82.37-.82.82-.82.82.37.82.82"/>
      <path class="cls-1" d="m9.1,137.07c0,.45-.37.82-.82.82s-.82-.37-.82-.82.37-.82.82-.82.82.37.82.82"/>
      <path class="cls-1" d="m11.33,149.94c0,.45-.37.82-.82.82s-.82-.37-.82-.82.37-.82.82-.82.82.37.82.82"/>
      <path class="cls-1" d="m14.15,153.39c0,.45-.37.82-.82.82s-.82-.37-.82-.82.37-.82.82-.82.82.37.82.82"/>
      <path class="cls-1" d="m13.45,137.76c0,.45-.37.82-.82.82s-.82-.37-.82-.82.37-.82.82-.82.82.37.82.82"/>
      <path class="cls-1" d="m18.83,97c0,.45-.37.82-.82.82s-.82-.37-.82-.82.37-.82.82-.82.82.37.82.82"/>
      <path class="cls-1" d="m30.14,59.36c0,.45-.37.82-.82.82s-.82-.37-.82-.82.37-.82.82-.82.82.37.82.82"/>
      <path class="cls-1" d="m33.51,52.68c0,.45-.37.82-.82.82s-.82-.37-.82-.82.37-.82.82-.82.82.37.82.82"/>
      <path class="cls-1" d="m34.73,51.04c0,.45-.37.82-.82.82s-.82-.37-.82-.82.37-.82.82-.82.82.37.82.82"/>
      <path class="cls-1" d="m29.84,87.92c0,.45-.37.82-.82.82s-.82-.37-.82-.82.37-.82.82-.82.82.37.82.82"/>
      <path class="cls-1" d="m27.28,119.73c0,.45-.37.82-.82.82s-.82-.37-.82-.82.37-.82.82-.82.82.37.82.82"/>
      <path class="cls-1" d="m27.59,132.09c0,.45-.37.82-.82.82s-.82-.37-.82-.82.37-.82.82-.82.82.37.82.82"/>
      <path class="cls-1" d="m31.77,143.69c0,.45-.37.82-.82.82s-.82-.37-.82-.82.37-.82.82-.82.82.37.82.82"/>
      <path class="cls-1" d="m31.87,147.9c0,.45-.37.82-.82.82s-.82-.37-.82-.82.37-.82.82-.82.82.37.82.82"/>
      <path class="cls-1" d="m24.13,130.51c0,.45-.37.82-.82.82s-.82-.37-.82-.82.37-.82.82-.82.82.37.82.82"/>
      <path class="cls-1" d="m23.29,103.03c0,.45-.37.82-.82.82s-.82-.37-.82-.82.37-.82.82-.82.82.37.82.82"/>
      <path class="cls-1" d="m29.39,90.52c0,.45-.37.82-.82.82s-.82-.37-.82-.82.37-.82.82-.82.82.37.82.82"/>
      <path class="cls-1" d="m37.66,69.95c0,.45-.37.82-.82.82s-.82-.37-.82-.82.37-.82.82-.82.82.37.82.82"/>
      <path class="cls-1" d="m44.33,53.06c0,.45-.37.82-.82.82s-.82-.37-.82-.82.37-.82.82-.82.82.37.82.82"/>
      <path class="cls-1" d="m52.46,42.66c0,.45-.37.82-.82.82s-.82-.37-.82-.82.37-.82.82-.82.82.37.82.82"/>
      <path class="cls-1" d="m59.38,38.13c0,.45-.37.82-.82.82s-.82-.37-.82-.82.37-.82.82-.82.82.37.82.82"/>
      <path class="cls-1" d="m65.23,34.77c0,.45-.37.82-.82.82s-.82-.37-.82-.82.37-.82.82-.82.82.37.82.82"/>
      <path class="cls-1" d="m73.85,29.48c0,.45-.37.82-.82.82s-.82-.37-.82-.82.37-.82.82-.82.82.37.82.82"/>
      <path class="cls-1" d="m83.65,26.54c0,.45-.37.82-.82.82s-.82-.37-.82-.82.37-.82.82-.82.82.37.82.82"/>
      <path class="cls-1" d="m86.92,25.38c0,.45-.37.82-.82.82s-.82-.37-.82-.82.37-.82.82-.82.82.37.82.82"/>
      <path class="cls-1" d="m88.56,23.28c0,.45-.37.82-.82.82s-.82-.37-.82-.82.37-.82.82-.82.82.37.82.82"/>
      <path class="cls-1" d="m92.86,23.89c0,.45-.37.82-.82.82s-.82-.37-.82-.82.37-.82.82-.82.82.37.82.82"/>
      <path class="cls-1" d="m97.75,23.27c0,.45-.37.82-.82.82s-.82-.37-.82-.82.37-.82.82-.82.82.37.82.82"/>
      <path class="cls-1" d="m101.33,23.85c0,.45-.37.82-.82.82s-.82-.37-.82-.82.37-.82.82-.82.82.37.82.82"/>
      <path class="cls-1" d="m103.65,25.05c0,.45-.37.82-.82.82s-.82-.37-.82-.82.37-.82.82-.82.82.37.82.82"/>
      <path class="cls-1" d="m103.86,26.76c0,.45-.37.82-.82.82s-.82-.37-.82-.82.37-.82.82-.82.82.37.82.82"/>
      <path class="cls-1" d="m108.38,25.69c0,.45-.37.82-.82.82s-.82-.37-.82-.82.37-.82.82-.82.82.37.82.82"/>
      <path class="cls-1" d="m131.84,22.59c0,.45-.37.82-.82.82s-.82-.37-.82-.82.37-.82.82-.82.82.37.82.82"/>
      <path class="cls-1" d="m133.63,20.9c0,.45-.37.82-.82.82s-.82-.37-.82-.82.37-.82.82-.82.82.37.82.82"/>
      <path class="cls-1" d="m134.77,22.59c0,.45-.37.82-.82.82s-.82-.37-.82-.82.37-.82.82-.82.82.37.82.82"/>
      <path class="cls-1" d="m136.97,21.76c0,.45-.37.82-.82.82s-.82-.37-.82-.82.37-.82.82-.82.82.37.82.82"/>
      <path class="cls-1" d="m99.06,25.6c0,.45-.37.82-.82.82s-.82-.37-.82-.82.37-.82.82-.82.82.37.82.82"/>
      <path class="cls-1" d="m62.12,38.51c0,.45-.37.82-.82.82s-.82-.37-.82-.82.37-.82.82-.82.82.37.82.82"/>
      <path class="cls-1" d="m37.81,56.04c0,.45-.37.82-.82.82s-.82-.37-.82-.82.37-.82.82-.82.82.37.82.82"/>
      <path class="cls-1" d="m24.92,72.19c0,.45-.37.82-.82.82s-.82-.37-.82-.82.37-.82.82-.82.82.37.82.82"/>
      <path class="cls-1" d="m21.64,85.36c0,.45-.37.82-.82.82s-.82-.37-.82-.82.37-.82.82-.82.82.37.82.82"/>
      <path class="cls-1" d="m20.74,104.52c0,.45-.37.82-.82.82s-.82-.37-.82-.82.37-.82.82-.82.82.37.82.82"/>
      <path class="cls-1" d="m21.91,121.76c0,.45-.37.82-.82.82s-.82-.37-.82-.82.37-.82.82-.82.82.37.82.82"/>
      <path class="cls-1" d="m25.46,134.26c0,.45-.37.82-.82.82s-.82-.37-.82-.82.37-.82.82-.82.82.37.82.82"/>
      <path class="cls-1" d="m29.12,143.78c0,.45-.37.82-.82.82s-.82-.37-.82-.82.37-.82.82-.82.82.37.82.82"/>
      <path class="cls-1" d="m36.46,159.9c0,.45-.37.82-.82.82s-.82-.37-.82-.82.37-.82.82-.82.82.37.82.82"/>
      <path class="cls-1" d="m43.13,174.14c0,.45-.37.82-.82.82s-.82-.37-.82-.82.37-.82.82-.82.82.37.82.82"/>
      <path class="cls-1" d="m48.16,182.91c0,.45-.37.82-.82.82s-.82-.37-.82-.82.37-.82.82-.82.82.37.82.82"/>
      <path class="cls-1" d="m39.86,179.76c0,.45-.37.82-.82.82s-.82-.37-.82-.82.37-.82.82-.82.82.37.82.82"/>
      <path class="cls-1" d="m25.31,159.35c0,.45-.37.82-.82.82s-.82-.37-.82-.82.37-.82.82-.82.82.37.82.82"/>
      <path class="cls-1" d="m20.79,142.65c0,.45-.37.82-.82.82s-.82-.37-.82-.82.37-.82.82-.82.82.37.82.82"/>
      <path class="cls-1" d="m21.38,144.88c0,.45-.37.82-.82.82s-.82-.37-.82-.82.37-.82.82-.82.82.37.82.82"/>
      <path class="cls-1" d="m30.54,168.77c0,.45-.37.82-.82.82s-.82-.37-.82-.82.37-.82.82-.82.82.37.82.82"/>
      <path class="cls-1" d="m36.39,181.08c0,.45-.37.82-.82.82s-.82-.37-.82-.82.37-.82.82-.82.82.37.82.82"/>
      <path class="cls-1" d="m46.56,190.16c0,.45-.37.82-.82.82s-.82-.37-.82-.82.37-.82.82-.82.82.37.82.82"/>
      <path class="cls-1" d="m56.32,197.28c0,.45-.37.82-.82.82s-.82-.37-.82-.82.37-.82.82-.82.82.37.82.82"/>
      <path class="cls-1" d="m60.42,199.32c0,.45-.37.82-.82.82s-.82-.37-.82-.82.37-.82.82-.82.82.37.82.82"/>
      <path class="cls-1" d="m68.82,202.62c0,.45-.37.82-.82.82s-.82-.37-.82-.82.37-.82.82-.82.82.37.82.82"/>
      <path class="cls-1" d="m77.61,205.84c0,.45-.37.82-.82.82s-.82-.37-.82-.82.37-.82.82-.82.82.37.82.82"/>
      <path class="cls-1" d="m82.3,208.43c0,.45-.37.82-.82.82s-.82-.37-.82-.82.37-.82.82-.82.82.37.82.82"/>
      <path class="cls-1" d="m85.74,210.36c0,.45-.37.82-.82.82s-.82-.37-.82-.82.37-.82.82-.82.82.37.82.82"/>
      <path class="cls-1" d="m82.48,211.73c0,.45-.37.82-.82.82s-.82-.37-.82-.82.37-.82.82-.82.82.37.82.82"/>
      <path class="cls-1" d="m65,205.99c0,.45-.37.82-.82.82s-.82-.37-.82-.82.37-.82.82-.82.82.37.82.82"/>
      <path class="cls-1" d="m46.98,193.08c0,.45-.37.82-.82.82s-.82-.37-.82-.82.37-.82.82-.82.82.37.82.82"/>
      <path class="cls-1" d="m42.28,189.09c0,.45-.37.82-.82.82s-.82-.37-.82-.82.37-.82.82-.82.82.37.82.82"/>
      <path class="cls-1" d="m48.48,191.2c0,.45-.37.82-.82.82s-.82-.37-.82-.82.37-.82.82-.82.82.37.82.82"/>
      <path class="cls-1" d="m70.21,208.87c0,.45-.37.82-.82.82s-.82-.37-.82-.82.37-.82.82-.82.82.37.82.82"/>
      <path class="cls-1" d="m91.12,216.42c0,.45-.37.82-.82.82s-.82-.37-.82-.82.37-.82.82-.82.82.37.82.82"/>
      <path class="cls-1" d="m145.74,215.83c0,.45-.37.82-.82.82s-.82-.37-.82-.82.37-.82.82-.82.82.37.82.82"/>
      <path class="cls-1" d="m151.73,211.55c0,.45-.37.82-.82.82s-.82-.37-.82-.82.37-.82.82-.82.82.37.82.82"/>
      <path class="cls-1" d="m156.39,208.81c0,.45-.37.82-.82.82s-.82-.37-.82-.82.37-.82.82-.82.82.37.82.82"/>
      <path class="cls-1" d="m159.98,206.15c0,.45-.37.82-.82.82s-.82-.37-.82-.82.37-.82.82-.82.82.37.82.82"/>
      <path class="cls-1" d="m165.22,202.27c0,.45-.37.82-.82.82s-.82-.37-.82-.82.37-.82.82-.82.82.37.82.82"/>
      <path class="cls-1" d="m16.53,114.4c0,.45-.37.82-.82.82s-.82-.37-.82-.82.37-.82.82-.82.82.37.82.82"/>
      <path class="cls-1" d="m18.54,70.04c0,.45-.37.82-.82.82s-.82-.37-.82-.82.37-.82.82-.82.82.37.82.82"/>
      <path class="cls-1" d="m25.35,42.87c0,.45-.37.82-.82.82s-.82-.37-.82-.82.37-.82.82-.82.82.37.82.82"/>
      <path class="cls-1" d="m29.33,35.5c0,.45-.37.82-.82.82s-.82-.37-.82-.82.37-.82.82-.82.82.37.82.82"/>
      <path class="cls-1" d="m21.91,53.9c0,.45-.37.82-.82.82s-.82-.37-.82-.82.37-.82.82-.82.82.37.82.82"/>
      <path class="cls-1" d="m11.75,91.31c0,.45-.37.82-.82.82s-.82-.37-.82-.82.37-.82.82-.82.82.37.82.82"/>
      <path class="cls-1" d="m6.88,123.46c0,.45-.37.82-.82.82s-.82-.37-.82-.82.37-.82.82-.82.82.37.82.82"/>
      <path class="cls-1" d="m10.98,144.09c0,.45-.37.82-.82.82s-.82-.37-.82-.82.37-.82.82-.82.82.37.82.82"/>
      <path class="cls-1" d="m14.25,143.46c0,.45-.37.82-.82.82s-.82-.37-.82-.82.37-.82.82-.82.82.37.82.82"/>
      <path class="cls-1" d="m25.17,80.84c0,.45-.37.82-.82.82s-.82-.37-.82-.82.37-.82.82-.82.82.37.82.82"/>
      <path class="cls-1" d="m36.18,60.8c0,.45-.37.82-.82.82s-.82-.37-.82-.82.37-.82.82-.82.82.37.82.82"/>
      <path class="cls-1" d="m31.75,68.13c0,.45-.37.82-.82.82s-.82-.37-.82-.82.37-.82.82-.82.82.37.82.82"/>
      <path class="cls-1" d="m17.84,117.33c0,.45-.37.82-.82.82s-.82-.37-.82-.82.37-.82.82-.82.82.37.82.82"/>
      <path class="cls-1" d="m17.82,145.87c0,.45-.37.82-.82.82s-.82-.37-.82-.82.37-.82.82-.82.82.37.82.82"/>
      <path class="cls-1" d="m21.03,149.63c0,.45-.37.82-.82.82s-.82-.37-.82-.82.37-.82.82-.82.82.37.82.82"/>
      <path class="cls-1" d="m22.56,119.65c0,.45-.37.82-.82.82s-.82-.37-.82-.82.37-.82.82-.82.82.37.82.82"/>
      <path class="cls-1" d="m19.44,111.5c0,.45-.37.82-.82.82s-.82-.37-.82-.82.37-.82.82-.82.82.37.82.82"/>
      <path class="cls-1" d="m22.76,146.92c0,.45-.37.82-.82.82s-.82-.37-.82-.82.37-.82.82-.82.82.37.82.82"/>
      <path class="cls-1" d="m40.29,176.37c0,.45-.37.82-.82.82s-.82-.37-.82-.82.37-.82.82-.82.82.37.82.82"/>
      <path class="cls-1" d="m51.41,181.13c0,.45-.37.82-.82.82s-.82-.37-.82-.82.37-.82.82-.82.82.37.82.82"/>
      <path class="cls-1" d="m69.62,191.09c0,.45-.37.82-.82.82s-.82-.37-.82-.82.37-.82.82-.82.82.37.82.82"/>
      <path class="cls-1" d="m75.82,196.21c0,.45-.37.82-.82.82s-.82-.37-.82-.82.37-.82.82-.82.82.37.82.82"/>
      <path class="cls-1" d="m70.2,194.38c0,.45-.37.82-.82.82s-.82-.37-.82-.82.37-.82.82-.82.82.37.82.82"/>
      <path class="cls-1" d="m39.67,158.76c0,.45-.37.82-.82.82s-.82-.37-.82-.82.37-.82.82-.82.82.37.82.82"/>
      <path class="cls-1" d="m27.68,136.33c0,.45-.37.82-.82.82s-.82-.37-.82-.82.37-.82.82-.82.82.37.82.82"/>
      <path class="cls-1" d="m22.77,111.37c0,.45-.37.82-.82.82s-.82-.37-.82-.82.37-.82.82-.82.82.37.82.82"/>
      <path class="cls-1" d="m20.79,104.31c0,.45-.37.82-.82.82s-.82-.37-.82-.82.37-.82.82-.82.82.37.82.82"/>
      <path class="cls-1" d="m20.64,129.71c0,.45-.37.82-.82.82s-.82-.37-.82-.82.37-.82.82-.82.82.37.82.82"/>
      <path class="cls-1" d="m32.7,165.77c0,.45-.37.82-.82.82s-.82-.37-.82-.82.37-.82.82-.82.82.37.82.82"/>
      <path class="cls-1" d="m54.22,188.78c0,.45-.37.82-.82.82s-.82-.37-.82-.82.37-.82.82-.82.82.37.82.82"/>
      <path class="cls-1" d="m69.97,197.74c0,.45-.37.82-.82.82s-.82-.37-.82-.82.37-.82.82-.82.82.37.82.82"/>
      <path class="cls-1" d="m83.63,202.99c0,.45-.37.82-.82.82s-.82-.37-.82-.82.37-.82.82-.82.82.37.82.82"/>
      <path class="cls-1" d="m94.03,205.88c0,.45-.37.82-.82.82s-.82-.37-.82-.82.37-.82.82-.82.82.37.82.82"/>
      <path class="cls-1" d="m140.89,210.06c0,.45-.37.82-.82.82s-.82-.37-.82-.82.37-.82.82-.82.82.37.82.82"/>
      <path class="cls-1" d="m153.65,207.19c0,.45-.37.82-.82.82s-.82-.37-.82-.82.37-.82.82-.82.82.37.82.82"/>
      <path class="cls-1" d="m167.5,202.51c0,.45-.37.82-.82.82s-.82-.37-.82-.82.37-.82.82-.82.82.37.82.82"/>
      <path class="cls-1" d="m174.07,195.2c0,.45-.37.82-.82.82s-.82-.37-.82-.82.37-.82.82-.82.82.37.82.82"/>
      <path class="cls-1" d="m182.77,186.31c0,.45-.37.82-.82.82s-.82-.37-.82-.82.37-.82.82-.82.82.37.82.82"/>
      <path class="cls-1" d="m189.56,176.15c0,.45-.37.82-.82.82s-.82-.37-.82-.82.37-.82.82-.82.82.37.82.82"/>
      <path class="cls-1" d="m194.72,166.07c0,.45-.37.82-.82.82s-.82-.37-.82-.82.37-.82.82-.82.82.37.82.82"/>
      <path class="cls-1" d="m198.12,158.58c0,.45-.37.82-.82.82s-.82-.37-.82-.82.37-.82.82-.82.82.37.82.82"/>
      <path class="cls-1" d="m198.96,156.87c0,.45-.37.82-.82.82s-.82-.37-.82-.82.37-.82.82-.82.82.37.82.82"/>
      <path class="cls-1" d="m188.26,177.34c0,.45-.37.82-.82.82s-.82-.37-.82-.82.37-.82.82-.82.82.37.82.82"/>
      <path class="cls-1" d="m169.75,196.72c0,.45-.37.82-.82.82s-.82-.37-.82-.82.37-.82.82-.82.82.37.82.82"/>
      <path class="cls-1" d="m155.09,204.35c0,.45-.37.82-.82.82s-.82-.37-.82-.82.37-.82.82-.82.82.37.82.82"/>
      <path class="cls-1" d="m144.8,207.97c0,.45-.37.82-.82.82s-.82-.37-.82-.82.37-.82.82-.82.82.37.82.82"/>
      <path class="cls-1" d="m90.17,210.67c0,.45-.37.82-.82.82s-.82-.37-.82-.82.37-.82.82-.82.82.37.82.82"/>
      <path class="cls-1" d="m78.08,207.58c0,.45-.37.82-.82.82s-.82-.37-.82-.82.37-.82.82-.82.82.37.82.82"/>
      <path class="cls-1" d="m56.59,196.15c0,.45-.37.82-.82.82s-.82-.37-.82-.82.37-.82.82-.82.82.37.82.82"/>
      <path class="cls-1" d="m43.99,186.41c0,.45-.37.82-.82.82s-.82-.37-.82-.82.37-.82.82-.82.82.37.82.82"/>
      <path class="cls-1" d="m31.68,175.02c0,.45-.37.82-.82.82s-.82-.37-.82-.82.37-.82.82-.82.82.37.82.82"/>
      <path class="cls-1" d="m21.41,159.52c0,.45-.37.82-.82.82s-.82-.37-.82-.82.37-.82.82-.82.82.37.82.82"/>
      <path class="cls-1" d="m8.24,126.9c0,.45-.37.82-.82.82s-.82-.37-.82-.82.37-.82.82-.82.82.37.82.82"/>
      <path class="cls-1" d="m2.58,98.9c0,.45-.37.82-.82.82s-.82-.37-.82-.82.37-.82.82-.82.82.37.82.82"/>
      <path class="cls-1" d="m3.78,79.62c0,.45-.37.82-.82.82s-.82-.37-.82-.82.37-.82.82-.82.82.37.82.82"/>
      <path class="cls-1" d="m8.03,66.3c0,.45-.37.82-.82.82s-.82-.37-.82-.82.37-.82.82-.82.82.37.82.82"/>
      <path class="cls-1" d="m11.92,57.46c0,.45-.37.82-.82.82s-.82-.37-.82-.82.37-.82.82-.82.82.37.82.82"/>
      <path class="cls-1" d="m13.27,56.23c0,.45-.37.82-.82.82s-.82-.37-.82-.82.37-.82.82-.82.82.37.82.82"/>
      <path class="cls-1" d="m10.19,93.34c0,.45-.37.82-.82.82s-.82-.37-.82-.82.37-.82.82-.82.82.37.82.82"/>
      <path class="cls-1" d="m7.74,115.12c0,.45-.37.82-.82.82s-.82-.37-.82-.82.37-.82.82-.82.82.37.82.82"/>
      <path class="cls-1" d="m8.54,131.51c0,.45-.37.82-.82.82s-.82-.37-.82-.82.37-.82.82-.82.82.37.82.82"/>
      <path class="cls-1" d="m9.94,137.33c0,.45-.37.82-.82.82s-.82-.37-.82-.82.37-.82.82-.82.82.37.82.82"/>
      <path class="cls-1" d="m10.35,107.82c0,.45-.37.82-.82.82s-.82-.37-.82-.82.37-.82.82-.82.82.37.82.82"/>
      <path class="cls-1" d="m18.44,75.18c0,.45-.37.82-.82.82s-.82-.37-.82-.82.37-.82.82-.82.82.37.82.82"/>
      <path class="cls-1" d="m24.34,58.27c0,.45-.37.82-.82.82s-.82-.37-.82-.82.37-.82.82-.82.82.37.82.82"/>
      <path class="cls-1" d="m26.16,54.57c0,.45-.37.82-.82.82s-.82-.37-.82-.82.37-.82.82-.82.82.37.82.82"/>
      <path class="cls-1" d="m17.49,91.58c0,.45-.37.82-.82.82s-.82-.37-.82-.82.37-.82.82-.82.82.37.82.82"/>
      <path class="cls-1" d="m15.34,116.45c0,.45-.37.82-.82.82s-.82-.37-.82-.82.37-.82.82-.82.82.37.82.82"/>
      <path class="cls-1" d="m16.07,109.99c0,.45-.37.82-.82.82s-.82-.37-.82-.82.37-.82.82-.82.82.37.82.82"/>
      <path class="cls-1" d="m27.35,74.18c0,.45-.37.82-.82.82s-.82-.37-.82-.82.37-.82.82-.82.82.37.82.82"/>
      <path class="cls-1" d="m33.9,61.89c0,.45-.37.82-.82.82s-.82-.37-.82-.82.37-.82.82-.82.82.37.82.82"/>
      <path class="cls-1" d="m39.27,51.08c0,.45-.37.82-.82.82s-.82-.37-.82-.82.37-.82.82-.82.82.37.82.82"/>
      <path class="cls-1" d="m41.88,43.51c0,.45-.37.82-.82.82s-.82-.37-.82-.82.37-.82.82-.82.82.37.82.82"/>
      <path class="cls-1" d="m47.99,35.8c0,.45-.37.82-.82.82s-.82-.37-.82-.82.37-.82.82-.82.82.37.82.82"/>
      <path class="cls-1" d="m53.99,30.26c0,.45-.37.82-.82.82s-.82-.37-.82-.82.37-.82.82-.82.82.37.82.82"/>
      <path class="cls-1" d="m58.01,25.96c0,.45-.37.82-.82.82s-.82-.37-.82-.82.37-.82.82-.82.82.37.82.82"/>
      <path class="cls-1" d="m61.53,23.2c0,.45-.37.82-.82.82s-.82-.37-.82-.82.37-.82.82-.82.82.37.82.82"/>
      <path class="cls-1" d="m64.64,20.7c0,.45-.37.82-.82.82s-.82-.37-.82-.82.37-.82.82-.82.82.37.82.82"/>
      <path class="cls-1" d="m65.32,22.27c0,.45-.37.82-.82.82s-.82-.37-.82-.82.37-.82.82-.82.82.37.82.82"/>
      <path class="cls-1" d="m46.64,42.46c0,.45-.37.82-.82.82s-.82-.37-.82-.82.37-.82.82-.82.82.37.82.82"/>
      <path class="cls-1" d="m36.3,51.47c0,.45-.37.82-.82.82s-.82-.37-.82-.82.37-.82.82-.82.82.37.82.82"/>
      <path class="cls-1" d="m34.87,54.72c0,.45-.37.82-.82.82s-.82-.37-.82-.82.37-.82.82-.82.82.37.82.82"/>
      <path class="cls-1" d="m53.12,42.31c0,.45-.37.82-.82.82s-.82-.37-.82-.82.37-.82.82-.82.82.37.82.82"/>
      <path class="cls-1" d="m72.82,29.79c0,.45-.37.82-.82.82s-.82-.37-.82-.82.37-.82.82-.82.82.37.82.82"/>
      <path class="cls-1" d="m82.34,23.88c0,.45-.37.82-.82.82s-.82-.37-.82-.82.37-.82.82-.82.82.37.82.82"/>
      <path class="cls-1" d="m77.73,27.54c0,.45-.37.82-.82.82s-.82-.37-.82-.82.37-.82.82-.82.82.37.82.82"/>
      <path class="cls-1" d="m43.56,48.73c0,.45-.37.82-.82.82s-.82-.37-.82-.82.37-.82.82-.82.82.37.82.82"/>
      <path class="cls-1" d="m38.59,54.18c0,.45-.37.82-.82.82s-.82-.37-.82-.82.37-.82.82-.82.82.37.82.82"/>
      <path class="cls-1" d="m43.34,45.9c0,.45-.37.82-.82.82s-.82-.37-.82-.82.37-.82.82-.82.82.37.82.82"/>
      <path class="cls-1" d="m70.27,20.06c0,.45-.37.82-.82.82s-.82-.37-.82-.82.37-.82.82-.82.82.37.82.82"/>
      <path class="cls-1" d="m93.29,17.48c0,.45-.37.82-.82.82s-.82-.37-.82-.82.37-.82.82-.82.82.37.82.82"/>
      <path class="cls-1" d="m109,17.45c0,.45-.37.82-.82.82s-.82-.37-.82-.82.37-.82.82-.82.82.37.82.82"/>
      <path class="cls-1" d="m135.1,16.72c0,.45-.37.82-.82.82s-.82-.37-.82-.82.37-.82.82-.82.82.37.82.82"/>
      <path class="cls-1" d="m147.29,16.58c0,.45-.37.82-.82.82s-.82-.37-.82-.82.37-.82.82-.82.82.37.82.82"/>
      <path class="cls-1" d="m157.66,22.66c0,.45-.37.82-.82.82s-.82-.37-.82-.82.37-.82.82-.82.82.37.82.82"/>
      <path class="cls-1" d="m169.53,30.29c0,.45-.37.82-.82.82s-.82-.37-.82-.82.37-.82.82-.82.82.37.82.82"/>
      <path class="cls-1" d="m176.57,36.92c0,.45-.37.82-.82.82s-.82-.37-.82-.82.37-.82.82-.82.82.37.82.82"/>
      <path class="cls-1" d="m183.18,43.39c0,.45-.37.82-.82.82s-.82-.37-.82-.82.37-.82.82-.82.82.37.82.82"/>
      <path class="cls-1" d="m186.26,46.79c0,.45-.37.82-.82.82s-.82-.37-.82-.82.37-.82.82-.82.82.37.82.82"/>
      <path class="cls-1" d="m183.42,40.47c0,.45-.37.82-.82.82s-.82-.37-.82-.82.37-.82.82-.82.82.37.82.82"/>
      <path class="cls-1" d="m161.44,23.66c0,.45-.37.82-.82.82s-.82-.37-.82-.82.37-.82.82-.82.82.37.82.82"/>
      <path class="cls-1" d="m139.28,14.6c0,.45-.37.82-.82.82s-.82-.37-.82-.82.37-.82.82-.82.82.37.82.82"/>
      <path class="cls-1" d="m120.21,11.81c0,.45-.37.82-.82.82s-.82-.37-.82-.82.37-.82.82-.82.82.37.82.82"/>
      <path class="cls-1" d="m100.95,11.17c0,.45-.37.82-.82.82s-.82-.37-.82-.82.37-.82.82-.82.82.37.82.82"/>
      <path class="cls-1" d="m75.95,16.42c0,.45-.37.82-.82.82s-.82-.37-.82-.82.37-.82.82-.82.82.37.82.82"/>
      <path class="cls-1" d="m54.81,26.86c0,.45-.37.82-.82.82s-.82-.37-.82-.82.37-.82.82-.82.82.37.82.82"/>
      <path class="cls-1" d="m31.01,44.2c0,.45-.37.82-.82.82s-.82-.37-.82-.82.37-.82.82-.82.82.37.82.82"/>
      <path class="cls-1" d="m16.11,63.86c0,.45-.37.82-.82.82s-.82-.37-.82-.82.37-.82.82-.82.82.37.82.82"/>
      <path class="cls-1" d="m15.21,62.23c0,.45-.37.82-.82.82s-.82-.37-.82-.82.37-.82.82-.82.82.37.82.82"/>
      <path class="cls-1" d="m33.23,35.55c0,.45-.37.82-.82.82s-.82-.37-.82-.82.37-.82.82-.82.82.37.82.82"/>
      <path class="cls-1" d="m47.24,26.58c0,.45-.37.82-.82.82s-.82-.37-.82-.82.37-.82.82-.82.82.37.82.82"/>
      <path class="cls-1" d="m73.96,19.02c0,.45-.37.82-.82.82s-.82-.37-.82-.82.37-.82.82-.82.82.37.82.82"/>
      <path class="cls-1" d="m86.67,16.88c0,.45-.37.82-.82.82s-.82-.37-.82-.82.37-.82.82-.82.82.37.82.82"/>
      <path class="cls-1" d="m103.28,13.48c0,.45-.37.82-.82.82s-.82-.37-.82-.82.37-.82.82-.82.82.37.82.82"/>
      <path class="cls-1" d="m107.71,12.07c0,.45-.37.82-.82.82s-.82-.37-.82-.82.37-.82.82-.82.82.37.82.82"/>
      <path class="cls-1" d="m111.3,12.56c0,.45-.37.82-.82.82s-.82-.37-.82-.82.37-.82.82-.82.82.37.82.82"/>
      <path class="cls-1" d="m111.79,10.79c0,.45-.37.82-.82.82s-.82-.37-.82-.82.37-.82.82-.82.82.37.82.82"/>
      <path class="cls-1" d="m96.84,9.78c0,.45-.37.82-.82.82s-.82-.37-.82-.82.37-.82.82-.82.82.37.82.82"/>
      <path class="cls-1" d="m70.7,29.02c0,.45-.37.82-.82.82s-.82-.37-.82-.82.37-.82.82-.82.82.37.82.82"/>
      <path class="cls-1" d="m41.22,55.14c0,.45-.37.82-.82.82s-.82-.37-.82-.82.37-.82.82-.82.82.37.82.82"/>
      <path class="cls-1" d="m28.11,71.6c0,.45-.37.82-.82.82s-.82-.37-.82-.82.37-.82.82-.82.82.37.82.82"/>
      <path class="cls-1" d="m20.73,88.28c0,.45-.37.82-.82.82s-.82-.37-.82-.82.37-.82.82-.82.82.37.82.82"/>
      <path class="cls-1" d="m17.21,105.52c0,.45-.37.82-.82.82s-.82-.37-.82-.82.37-.82.82-.82.82.37.82.82"/>
      <path class="cls-1" d="m15.65,123.61c0,.45-.37.82-.82.82s-.82-.37-.82-.82.37-.82.82-.82.82.37.82.82"/>
      <path class="cls-1" d="m18.53,124.59c0,.45-.37.82-.82.82s-.82-.37-.82-.82.37-.82.82-.82.82.37.82.82"/>
      <path class="cls-1" d="m26.37,87.34c0,.45-.37.82-.82.82s-.82-.37-.82-.82.37-.82.82-.82.82.37.82.82"/>
      <path class="cls-1" d="m39.62,60.57c0,.45-.37.82-.82.82s-.82-.37-.82-.82.37-.82.82-.82.82.37.82.82"/>
      <path class="cls-1" d="m49.87,40.37c0,.45-.37.82-.82.82s-.82-.37-.82-.82.37-.82.82-.82.82.37.82.82"/>
      <path class="cls-1" d="m52.3,37.8c0,.45-.37.82-.82.82s-.82-.37-.82-.82.37-.82.82-.82.82.37.82.82"/>
      <path class="cls-1" d="m50.67,42.96c0,.45-.37.82-.82.82s-.82-.37-.82-.82.37-.82.82-.82.82.37.82.82"/>
      <path class="cls-1" d="m34.31,81.59c0,.45-.37.82-.82.82s-.82-.37-.82-.82.37-.82.82-.82.82.37.82.82"/>
      <path class="cls-1" d="m30.36,102.11c0,.45-.37.82-.82.82s-.82-.37-.82-.82.37-.82.82-.82.82.37.82.82"/>
      <path class="cls-1" d="m30.61,122.23c0,.45-.37.82-.82.82s-.82-.37-.82-.82.37-.82.82-.82.82.37.82.82"/>
      <path class="cls-1" d="m29.81,143.61c0,.45-.37.82-.82.82s-.82-.37-.82-.82.37-.82.82-.82.82.37.82.82"/>
      <path class="cls-1" d="m34.45,155.16c0,.45-.37.82-.82.82s-.82-.37-.82-.82.37-.82.82-.82.82.37.82.82"/>
      <path class="cls-1" d="m38.48,161.37c0,.45-.37.82-.82.82s-.82-.37-.82-.82.37-.82.82-.82.82.37.82.82"/>
      <path class="cls-1" d="m35.66,152.47c0,.45-.37.82-.82.82s-.82-.37-.82-.82.37-.82.82-.82.82.37.82.82"/>
      <path class="cls-1" d="m28.2,99.29c0,.45-.37.82-.82.82s-.82-.37-.82-.82.37-.82.82-.82.82.37.82.82"/>
      <path class="cls-1" d="m30.21,75.52c0,.45-.37.82-.82.82s-.82-.37-.82-.82.37-.82.82-.82.82.37.82.82"/>
      <path class="cls-1" d="m29.4,58.46c0,.45-.37.82-.82.82s-.82-.37-.82-.82.37-.82.82-.82.82.37.82.82"/>
      <path class="cls-1" d="m26.68,59.87c0,.45-.37.82-.82.82s-.82-.37-.82-.82.37-.82.82-.82.82.37.82.82"/>
      <path class="cls-1" d="m21.27,95.03c0,.45-.37.82-.82.82s-.82-.37-.82-.82.37-.82.82-.82.82.37.82.82"/>
      <path class="cls-1" d="m17.59,120.64c0,.45-.37.82-.82.82s-.82-.37-.82-.82.37-.82.82-.82.82.37.82.82"/>
      <path class="cls-1" d="m20.69,136.78c0,.45-.37.82-.82.82s-.82-.37-.82-.82.37-.82.82-.82.82.37.82.82"/>
      <path class="cls-1" d="m23.05,152.77c0,.45-.37.82-.82.82s-.82-.37-.82-.82.37-.82.82-.82.82.37.82.82"/>
      <path class="cls-1" d="m26.67,164.69c0,.45-.37.82-.82.82s-.82-.37-.82-.82.37-.82.82-.82.82.37.82.82"/>
      <path class="cls-1" d="m35.97,179.64c0,.45-.37.82-.82.82s-.82-.37-.82-.82.37-.82.82-.82.82.37.82.82"/>
      <path class="cls-1" d="m41.64,190.47c0,.45-.37.82-.82.82s-.82-.37-.82-.82.37-.82.82-.82.82.37.82.82"/>
      <path class="cls-1" d="m42.3,192.65c0,.45-.37.82-.82.82s-.82-.37-.82-.82.37-.82.82-.82.82.37.82.82"/>
      <path class="cls-1" d="m25.73,176.77c0,.45-.37.82-.82.82s-.82-.37-.82-.82.37-.82.82-.82.82.37.82.82"/>
      <path class="cls-1" d="m17.59,155.29c0,.45-.37.82-.82.82s-.82-.37-.82-.82.37-.82.82-.82.82.37.82.82"/>
      <path class="cls-1" d="m13.49,133.85c0,.45-.37.82-.82.82s-.82-.37-.82-.82.37-.82.82-.82.82.37.82.82"/>
      <path class="cls-1" d="m12.3,117.51c0,.45-.37.82-.82.82s-.82-.37-.82-.82.37-.82.82-.82.82.37.82.82"/>
      <path class="cls-1" d="m14.01,96.63c0,.45-.37.82-.82.82s-.82-.37-.82-.82.37-.82.82-.82.82.37.82.82"/>
      <path class="cls-1" d="m16.69,101.63c0,.45-.37.82-.82.82s-.82-.37-.82-.82.37-.82.82-.82.82.37.82.82"/>
      <path class="cls-1" d="m33.8,158.89c0,.45-.37.82-.82.82s-.82-.37-.82-.82.37-.82.82-.82.82.37.82.82"/>
      <path class="cls-1" d="m47.43,182.37c0,.45-.37.82-.82.82s-.82-.37-.82-.82.37-.82.82-.82.82.37.82.82"/>
      <path class="cls-1" d="m52.09,190.21c0,.45-.37.82-.82.82s-.82-.37-.82-.82.37-.82.82-.82.82.37.82.82"/>
      <path class="cls-1" d="m59.69,197.34c0,.45-.37.82-.82.82s-.82-.37-.82-.82.37-.82.82-.82.82.37.82.82"/>
      <path class="cls-1" d="m67.64,204.96c0,.45-.37.82-.82.82s-.82-.37-.82-.82.37-.82.82-.82.82.37.82.82"/>
      <path class="cls-1" d="m72.71,208.11c0,.45-.37.82-.82.82s-.82-.37-.82-.82.37-.82.82-.82.82.37.82.82"/>
      <path class="cls-1" d="m70.71,205.75c0,.45-.37.82-.82.82s-.82-.37-.82-.82.37-.82.82-.82.82.37.82.82"/>
      <path class="cls-1" d="m58.05,192.29c0,.45-.37.82-.82.82s-.82-.37-.82-.82.37-.82.82-.82.82.37.82.82"/>
      <path class="cls-1" d="m40.26,166.96c0,.45-.37.82-.82.82s-.82-.37-.82-.82.37-.82.82-.82.82.37.82.82"/>
      <path class="cls-1" d="m29.63,131.36c0,.45-.37.82-.82.82s-.82-.37-.82-.82.37-.82.82-.82.82.37.82.82"/>
      <path class="cls-1" d="m22.06,89.88c0,.45-.37.82-.82.82s-.82-.37-.82-.82.37-.82.82-.82.82.37.82.82"/>
      <path class="cls-1" d="m18.5,68.17c0,.45-.37.82-.82.82s-.82-.37-.82-.82.37-.82.82-.82.82.37.82.82"/>
      <path class="cls-1" d="m23.56,45.62c0,.45-.37.82-.82.82s-.82-.37-.82-.82.37-.82.82-.82.82.37.82.82"/>
      <path class="cls-1" d="m27.56,42.63c0,.45-.37.82-.82.82s-.82-.37-.82-.82.37-.82.82-.82.82.37.82.82"/>
      <path class="cls-1" d="m32.7,40.8c0,.45-.37.82-.82.82s-.82-.37-.82-.82.37-.82.82-.82.82.37.82.82"/>
      <path class="cls-1" d="m22.07,68.31c0,.45-.37.82-.82.82s-.82-.37-.82-.82.37-.82.82-.82.82.37.82.82"/>
      <path class="cls-1" d="m12.45,88.6c0,.45-.37.82-.82.82s-.82-.37-.82-.82.37-.82.82-.82.82.37.82.82"/>
      <path class="cls-1" d="m11.16,106.34c0,.45-.37.82-.82.82s-.82-.37-.82-.82.37-.82.82-.82.82.37.82.82"/>
      <path class="cls-1" d="m12.44,112.99c0,.45-.37.82-.82.82s-.82-.37-.82-.82.37-.82.82-.82.82.37.82.82"/>
      <path class="cls-1" d="m33.26,75.69c0,.45-.37.82-.82.82s-.82-.37-.82-.82.37-.82.82-.82.82.37.82.82"/>
      <path class="cls-1" d="m59.53,45.8c0,.45-.37.82-.82.82s-.82-.37-.82-.82.37-.82.82-.82.82.37.82.82"/>
      <path class="cls-1" d="m66.23,34.16c0,.45-.37.82-.82.82s-.82-.37-.82-.82.37-.82.82-.82.82.37.82.82"/>
      <path class="cls-1" d="m75.82,28.9c0,.45-.37.82-.82.82s-.82-.37-.82-.82.37-.82.82-.82.82.37.82.82"/>
      <path class="cls-1" d="m76.01,26.47c0,.45-.37.82-.82.82s-.82-.37-.82-.82.37-.82.82-.82.82.37.82.82"/>
      <path class="cls-1" d="m69.9,34.33c0,.45-.37.82-.82.82s-.82-.37-.82-.82.37-.82.82-.82.82.37.82.82"/>
      <path class="cls-1" d="m55.32,57.21c0,.45-.37.82-.82.82s-.82-.37-.82-.82.37-.82.82-.82.82.37.82.82"/>
      <path class="cls-1" d="m33.5,91.55c0,.45-.37.82-.82.82s-.82-.37-.82-.82.37-.82.82-.82.82.37.82.82"/>
      <path class="cls-1" d="m28.99,107.08c0,.45-.37.82-.82.82s-.82-.37-.82-.82.37-.82.82-.82.82.37.82.82"/>
      <path class="cls-1" d="m28.55,124.02c0,.45-.37.82-.82.82s-.82-.37-.82-.82.37-.82.82-.82.82.37.82.82"/>
      <path class="cls-1" d="m175.78,188.83c0,.25-.2.45-.45.45s-.45-.2-.45-.45.2-.45.45-.45.45.2.45.45"/>
      <path class="cls-1" d="m137.94,19.31c0,.25-.2.45-.45.45s-.45-.2-.45-.45.2-.45.45-.45.45.2.45.45"/>
      <path class="cls-1" d="m109.06,18.5c0,.25-.2.45-.45.45s-.45-.2-.45-.45.2-.45.45-.45.45.2.45.45"/>
      <path class="cls-1" d="m92.3,19.23c0,.25-.2.45-.45.45s-.45-.2-.45-.45.2-.45.45-.45.45.2.45.45"/>
      <path class="cls-1" d="m77.08,23.43c0,.25-.2.45-.45.45s-.45-.2-.45-.45.2-.45.45-.45.45.2.45.45"/>
      <path class="cls-1" d="m62.36,30.75c0,.25-.2.45-.45.45s-.45-.2-.45-.45.2-.45.45-.45.45.2.45.45"/>
      <path class="cls-1" d="m52.98,41c0,.25-.2.45-.45.45s-.45-.2-.45-.45.2-.45.45-.45.45.2.45.45"/>
      <path class="cls-1" d="m42.4,54.73c0,.25-.2.45-.45.45s-.45-.2-.45-.45.2-.45.45-.45.45.2.45.45"/>
      <path class="cls-1" d="m36.67,67.16c0,.25-.2.45-.45.45s-.45-.2-.45-.45.2-.45.45-.45.45.2.45.45"/>
      <path class="cls-1" d="m30.77,82.57c0,.25-.2.45-.45.45s-.45-.2-.45-.45.2-.45.45-.45.45.2.45.45"/>
      <path class="cls-1" d="m27.63,104.03c0,.25-.2.45-.45.45s-.45-.2-.45-.45.2-.45.45-.45.45.2.45.45"/>
      <path class="cls-1" d="m27.68,125.05c0,.25-.2.45-.45.45s-.45-.2-.45-.45.2-.45.45-.45.45.2.45.45"/>
      <path class="cls-1" d="m31.94,143.27c0,.25-.2.45-.45.45s-.45-.2-.45-.45.2-.45.45-.45.45.2.45.45"/>
      <path class="cls-1" d="m35.16,155.74c0,.25-.2.45-.45.45s-.45-.2-.45-.45.2-.45.45-.45.45.2.45.45"/>
      <path class="cls-1" d="m34.74,150.21c0,.25-.2.45-.45.45s-.45-.2-.45-.45.2-.45.45-.45.45.2.45.45"/>
      <path class="cls-1" d="m20.67,111.01c0,.25-.2.45-.45.45s-.45-.2-.45-.45.2-.45.45-.45.45.2.45.45"/>
      <path class="cls-1" d="m17.81,80.97c0,.25-.2.45-.45.45s-.45-.2-.45-.45.2-.45.45-.45.45.2.45.45"/>
      <path class="cls-1" d="m18.24,66.07c0,.25-.2.45-.45.45s-.45-.2-.45-.45.2-.45.45-.45.45.2.45.45"/>
      <path class="cls-1" d="m18.34,86.53c0,.25-.2.45-.45.45s-.45-.2-.45-.45.2-.45.45-.45.45.2.45.45"/>
      <path class="cls-1" d="m20.17,125c0,.25-.2.45-.45.45s-.45-.2-.45-.45.2-.45.45-.45.45.2.45.45"/>
      <path class="cls-1" d="m26.2,156.43c0,.25-.2.45-.45.45s-.45-.2-.45-.45.2-.45.45-.45.45.2.45.45"/>
      <path class="cls-1" d="m39.15,174.93c0,.25-.2.45-.45.45s-.45-.2-.45-.45.2-.45.45-.45.45.2.45.45"/>
      <path class="cls-1" d="m50.02,188.93c0,.25-.2.45-.45.45s-.45-.2-.45-.45.2-.45.45-.45.45.2.45.45"/>
      <path class="cls-1" d="m51.6,189.93c0,.25-.2.45-.45.45s-.45-.2-.45-.45.2-.45.45-.45.45.2.45.45"/>
      <path class="cls-1" d="m24.64,171.37c0,.25-.2.45-.45.45s-.45-.2-.45-.45.2-.45.45-.45.45.2.45.45"/>
      <path class="cls-1" d="m13.5,151.09c0,.25-.2.45-.45.45s-.45-.2-.45-.45.2-.45.45-.45.45.2.45.45"/>
      <path class="cls-1" d="m10.92,144.63c0,.25-.2.45-.45.45s-.45-.2-.45-.45.2-.45.45-.45.45.2.45.45"/>
      <path class="cls-1" d="m21.82,161.72c0,.25-.2.45-.45.45s-.45-.2-.45-.45.2-.45.45-.45.45.2.45.45"/>
      <path class="cls-1" d="m35.76,178.83c0,.25-.2.45-.45.45s-.45-.2-.45-.45.2-.45.45-.45.45.2.45.45"/>
      <path class="cls-1" d="m49.34,190.8c0,.25-.2.45-.45.45s-.45-.2-.45-.45.2-.45.45-.45.45.2.45.45"/>
      <path class="cls-1" d="m65.46,200.16c0,.25-.2.45-.45.45s-.45-.2-.45-.45.2-.45.45-.45.45.2.45.45"/>
      <path class="cls-1" d="m79.48,204.08c0,.25-.2.45-.45.45s-.45-.2-.45-.45.2-.45.45-.45.45.2.45.45"/>
      <path class="cls-1" d="m97.46,205.26c0,.25-.2.45-.45.45s-.45-.2-.45-.45.2-.45.45-.45.45.2.45.45"/>
      <path class="cls-1" d="m146.97,205.67c0,.25-.2.45-.45.45s-.45-.2-.45-.45.2-.45.45-.45.45.2.45.45"/>
      <path class="cls-1" d="m162.26,202.38c0,.25-.2.45-.45.45s-.45-.2-.45-.45.2-.45.45-.45.45.2.45.45"/>
      <path class="cls-1" d="m171.11,197.73c0,.25-.2.45-.45.45s-.45-.2-.45-.45.2-.45.45-.45.45.2.45.45"/>
      <path class="cls-1" d="m174.51,194.67c0,.25-.2.45-.45.45s-.45-.2-.45-.45.2-.45.45-.45.45.2.45.45"/>
      <path class="cls-1" d="m173.54,193.97c0,.25-.2.45-.45.45s-.45-.2-.45-.45.2-.45.45-.45.45.2.45.45"/>
      <path class="cls-1" d="m163.82,203.22c0,.25-.2.45-.45.45s-.45-.2-.45-.45.2-.45.45-.45.45.2.45.45"/>
      <path class="cls-1" d="m92.35,207.65c0,.25-.2.45-.45.45s-.45-.2-.45-.45.2-.45.45-.45.45.2.45.45"/>
      <path class="cls-1" d="m70.6,200.06c0,.25-.2.45-.45.45s-.45-.2-.45-.45.2-.45.45-.45.45.2.45.45"/>
      <path class="cls-1" d="m55.1,191.8c0,.25-.2.45-.45.45s-.45-.2-.45-.45.2-.45.45-.45.45.2.45.45"/>
      <path class="cls-1" d="m42.87,185.41c0,.25-.2.45-.45.45s-.45-.2-.45-.45.2-.45.45-.45.45.2.45.45"/>
      <path class="cls-1" d="m29.74,177.59c0,.25-.2.45-.45.45s-.45-.2-.45-.45.2-.45.45-.45.45.2.45.45"/>
      <path class="cls-1" d="m22.4,163.99c0,.25-.2.45-.45.45s-.45-.2-.45-.45.2-.45.45-.45.45.2.45.45"/>
      <path class="cls-1" d="m19.79,145.07c0,.25-.2.45-.45.45s-.45-.2-.45-.45.2-.45.45-.45.45.2.45.45"/>
      <path class="cls-1" d="m17.33,120.8c0,.25-.2.45-.45.45s-.45-.2-.45-.45.2-.45.45-.45.45.2.45.45"/>
      <path class="cls-1" d="m17.42,100.7c0,.25-.2.45-.45.45s-.45-.2-.45-.45.2-.45.45-.45.45.2.45.45"/>
      <path class="cls-1" d="m21.94,73.77c0,.25-.2.45-.45.45s-.45-.2-.45-.45.2-.45.45-.45.45.2.45.45"/>
      <path class="cls-1" d="m33.23,51.92c0,.25-.2.45-.45.45s-.45-.2-.45-.45.2-.45.45-.45.45.2.45.45"/>
      <path class="cls-1" d="m41.43,39.99c0,.25-.2.45-.45.45s-.45-.2-.45-.45.2-.45.45-.45.45.2.45.45"/>
      <path class="cls-1" d="m48.64,31.29c0,.25-.2.45-.45.45s-.45-.2-.45-.45.2-.45.45-.45.45.2.45.45"/>
      <path class="cls-1" d="m57.33,25.57c0,.25-.2.45-.45.45s-.45-.2-.45-.45.2-.45.45-.45.45.2.45.45"/>
      <path class="cls-1" d="m75.59,16.98c0,.25-.2.45-.45.45s-.45-.2-.45-.45.2-.45.45-.45.45.2.45.45"/>
      <path class="cls-1" d="m74.75,17.73c0,.25-.2.45-.45.45s-.45-.2-.45-.45.2-.45.45-.45.45.2.45.45"/>
      <path class="cls-1" d="m59.29,24.93c0,.25-.2.45-.45.45s-.45-.2-.45-.45.2-.45.45-.45.45.2.45.45"/>
      <path class="cls-1" d="m38.96,33.84c0,.25-.2.45-.45.45s-.45-.2-.45-.45.2-.45.45-.45.45.2.45.45"/>
      <path class="cls-1" d="m28.1,47.87c0,.25-.2.45-.45.45s-.45-.2-.45-.45.2-.45.45-.45.45.2.45.45"/>
      <path class="cls-1" d="m27.05,50.59c0,.25-.2.45-.45.45s-.45-.2-.45-.45.2-.45.45-.45.45.2.45.45"/>
      <path class="cls-1" d="m40.63,42.24c0,.25-.2.45-.45.45s-.45-.2-.45-.45.2-.45.45-.45.45.2.45.45"/>
      <path class="cls-1" d="m77.08,26.55c0,.25-.2.45-.45.45s-.45-.2-.45-.45.2-.45.45-.45.45.2.45.45"/>
      <path class="cls-1" d="m105.64,17.49c0,.25-.2.45-.45.45s-.45-.2-.45-.45.2-.45.45-.45.45.2.45.45"/>
      <path class="cls-1" d="m120.2,16.11c0,.25-.2.45-.45.45s-.45-.2-.45-.45.2-.45.45-.45.45.2.45.45"/>
      <path class="cls-1" d="m134.35,19.85c0,.25-.2.45-.45.45s-.45-.2-.45-.45.2-.45.45-.45.45.2.45.45"/>
      <path class="cls-1" d="m147.7,22.16c0,.25-.2.45-.45.45s-.45-.2-.45-.45.2-.45.45-.45.45.2.45.45"/>
      <path class="cls-1" d="m159.31,25.05c0,.25-.2.45-.45.45s-.45-.2-.45-.45.2-.45.45-.45.45.2.45.45"/>
      <path class="cls-1" d="m158.49,25.81c0,.25-.2.45-.45.45s-.45-.2-.45-.45.2-.45.45-.45.45.2.45.45"/>
      <path class="cls-1" d="m136.39,23.01c0,.25-.2.45-.45.45s-.45-.2-.45-.45.2-.45.45-.45.45.2.45.45"/>
      <path class="cls-1" d="m120.1,22.97c0,.25-.2.45-.45.45s-.45-.2-.45-.45.2-.45.45-.45.45.2.45.45"/>
      <path class="cls-1" d="m111.71,22.92c0,.25-.2.45-.45.45s-.45-.2-.45-.45.2-.45.45-.45.45.2.45.45"/>
      <path class="cls-1" d="m98.72,23.61c0,.25-.2.45-.45.45s-.45-.2-.45-.45.2-.45.45-.45.45.2.45.45"/>
      <path class="cls-1" d="m92.41,25.49c0,.25-.2.45-.45.45s-.45-.2-.45-.45.2-.45.45-.45.45.2.45.45"/>
      <path class="cls-1" d="m88.62,26.94c0,.25-.2.45-.45.45s-.45-.2-.45-.45.2-.45.45-.45.45.2.45.45"/>
      <path class="cls-1" d="m123.09,21.39c0,.25-.2.45-.45.45s-.45-.2-.45-.45.2-.45.45-.45.45.2.45.45"/>
      <path class="cls-1" d="m146.28,27.05c0,.25-.2.45-.45.45s-.45-.2-.45-.45.2-.45.45-.45.45.2.45.45"/>
      <path class="cls-1" d="m161.1,33.35c0,.25-.2.45-.45.45s-.45-.2-.45-.45.2-.45.45-.45.45.2.45.45"/>
      <path class="cls-1" d="m180.77,41.17c0,.25-.2.45-.45.45s-.45-.2-.45-.45.2-.45.45-.45.45.2.45.45"/>
      <path class="cls-1" d="m191.8,48.3c0,.25-.2.45-.45.45s-.45-.2-.45-.45.2-.45.45-.45.45.2.45.45"/>
      <path class="cls-1" d="m194.65,51.48c0,.25-.2.45-.45.45s-.45-.2-.45-.45.2-.45.45-.45.45.2.45.45"/>
      <path class="cls-1" d="m195.15,53.8c0,.25-.2.45-.45.45s-.45-.2-.45-.45.2-.45.45-.45.45.2.45.45"/>
      <path class="cls-1" d="m176.54,44.07c0,.25-.2.45-.45.45s-.45-.2-.45-.45.2-.45.45-.45.45.2.45.45"/>
      <path class="cls-1" d="m134.99,32.11c0,.25-.2.45-.45.45s-.45-.2-.45-.45.2-.45.45-.45.45.2.45.45"/>
      <path class="cls-1" d="m100.99,31.16c0,.25-.2.45-.45.45s-.45-.2-.45-.45.2-.45.45-.45.45.2.45.45"/>
      <path class="cls-1" d="m66.56,43.49c0,.25-.2.45-.45.45s-.45-.2-.45-.45.2-.45.45-.45.45.2.45.45"/>
      <path class="cls-1" d="m46.7,57.57c0,.25-.2.45-.45.45s-.45-.2-.45-.45.2-.45.45-.45.45.2.45.45"/>
      <path class="cls-1" d="m34.21,75.18c0,.25-.2.45-.45.45s-.45-.2-.45-.45.2-.45.45-.45.45.2.45.45"/>
      <path class="cls-1" d="m28.66,101c0,.25-.2.45-.45.45s-.45-.2-.45-.45.2-.45.45-.45.45.2.45.45"/>
      <path class="cls-1" d="m28.63,120.71c0,.25-.2.45-.45.45s-.45-.2-.45-.45.2-.45.45-.45.45.2.45.45"/>
      <path class="cls-1" d="m28.61,139.2c0,.25-.2.45-.45.45s-.45-.2-.45-.45.2-.45.45-.45.45.2.45.45"/>
      <path class="cls-1" d="m34.07,152.81c0,.25-.2.45-.45.45s-.45-.2-.45-.45.2-.45.45-.45.45.2.45.45"/>
      <path class="cls-1" d="m39.25,161.05c0,.25-.2.45-.45.45s-.45-.2-.45-.45.2-.45.45-.45.45.2.45.45"/>
      <path class="cls-1" d="m33.91,124.09c0,.25-.2.45-.45.45s-.45-.2-.45-.45.2-.45.45-.45.45.2.45.45"/>
      <path class="cls-1" d="m39.14,87.89c0,.25-.2.45-.45.45s-.45-.2-.45-.45.2-.45.45-.45.45.2.45.45"/>
      <path class="cls-1" d="m54.41,54.49c0,.25-.2.45-.45.45s-.45-.2-.45-.45.2-.45.45-.45.45.2.45.45"/>
      <path class="cls-1" d="m55.89,51.44c0,.25-.2.45-.45.45s-.45-.2-.45-.45.2-.45.45-.45.45.2.45.45"/>
      <path class="cls-1" d="m47.06,158.15c0,.25-.2.45-.45.45s-.45-.2-.45-.45.2-.45.45-.45.45.2.45.45"/>
      <path class="cls-1" d="m58.29,175.98c0,.25-.2.45-.45.45s-.45-.2-.45-.45.2-.45.45-.45.45.2.45.45"/>
      <path class="cls-1" d="m59.37,174.91c0,.25-.2.45-.45.45s-.45-.2-.45-.45.2-.45.45-.45.45.2.45.45"/>
      <path class="cls-1" d="m38.81,115.5c0,.25-.2.45-.45.45s-.45-.2-.45-.45.2-.45.45-.45.45.2.45.45"/>
      <path class="cls-1" d="m41.43,47.13c0,.25-.2.45-.45.45s-.45-.2-.45-.45.2-.45.45-.45.45.2.45.45"/>
      <path class="cls-1" d="m42.66,43.77c0,.25-.2.45-.45.45s-.45-.2-.45-.45.2-.45.45-.45.45.2.45.45"/>
      <path class="cls-1" d="m31.49,76.16c0,.25-.2.45-.45.45s-.45-.2-.45-.45.2-.45.45-.45.45.2.45.45"/>
      <path class="cls-1" d="m23.44,133.04c0,.25-.2.45-.45.45s-.45-.2-.45-.45.2-.45.45-.45.45.2.45.45"/>
      <path class="cls-1" d="m25.77,170.18c0,.25-.2.45-.45.45s-.45-.2-.45-.45.2-.45.45-.45.45.2.45.45"/>
      <path class="cls-1" d="m27.37,172.2c0,.25-.2.45-.45.45s-.45-.2-.45-.45.2-.45.45-.45.45.2.45.45"/>
      <path class="cls-1" d="m16.63,152.07c0,.25-.2.45-.45.45s-.45-.2-.45-.45.2-.45.45-.45.45.2.45.45"/>
      <path class="cls-1" d="m46.9,176.99c0,.45-.37.82-.82.82s-.82-.37-.82-.82.37-.82.82-.82.82.37.82.82"/>
      <path class="cls-1" d="m41.32,40.63c0,.45-.37.82-.82.82s-.82-.37-.82-.82.37-.82.82-.82.82.37.82.82"/>
      <path class="cls-1" d="m30.86,58.32c0,.45-.37.82-.82.82s-.82-.37-.82-.82.37-.82.82-.82.82.37.82.82"/>
      <path class="cls-1" d="m25.35,83.37c0,.45-.37.82-.82.82s-.82-.37-.82-.82.37-.82.82-.82.82.37.82.82"/>
      <path class="cls-1" d="m19.55,111.52c0,.45-.37.82-.82.82s-.82-.37-.82-.82.37-.82.82-.82.82.37.82.82"/>
      <path class="cls-1" d="m18.63,128.34c0,.45-.37.82-.82.82s-.82-.37-.82-.82.37-.82.82-.82.82.37.82.82"/>
      <path class="cls-1" d="m21.37,140.83c0,.45-.37.82-.82.82s-.82-.37-.82-.82.37-.82.82-.82.82.37.82.82"/>
      <path class="cls-1" d="m27.26,157.15c0,.45-.37.82-.82.82s-.82-.37-.82-.82.37-.82.82-.82.82.37.82.82"/>
      <path class="cls-1" d="m33.37,172.58c0,.45-.37.82-.82.82s-.82-.37-.82-.82.37-.82.82-.82.82.37.82.82"/>
      <path class="cls-1" d="m41.09,187.01c0,.45-.37.82-.82.82s-.82-.37-.82-.82.37-.82.82-.82.82.37.82.82"/>
      <path class="cls-1" d="m42.67,189.16c0,.45-.37.82-.82.82s-.82-.37-.82-.82.37-.82.82-.82.82.37.82.82"/>
      <path class="cls-1" d="m27.39,173.6c0,.45-.37.82-.82.82s-.82-.37-.82-.82.37-.82.82-.82.82.37.82.82"/>
      <path class="cls-1" d="m17.4,155.82c0,.45-.37.82-.82.82s-.82-.37-.82-.82.37-.82.82-.82.82.37.82.82"/>
      <path class="cls-1" d="m16.21,148.25c0,.45-.37.82-.82.82s-.82-.37-.82-.82.37-.82.82-.82.82.37.82.82"/>
      <path class="cls-1" d="m16.17,146.45c0,.45-.37.82-.82.82s-.82-.37-.82-.82.37-.82.82-.82.82.37.82.82"/>
      <path class="cls-1" d="m24.44,170.83c0,.45-.37.82-.82.82s-.82-.37-.82-.82.37-.82.82-.82.82.37.82.82"/>
      <path class="cls-1" d="m34.41,187.72c0,.45-.37.82-.82.82s-.82-.37-.82-.82.37-.82.82-.82.82.37.82.82"/>
      <path class="cls-1" d="m40.93,194.21c0,.45-.37.82-.82.82s-.82-.37-.82-.82.37-.82.82-.82.82.37.82.82"/>
      <path class="cls-1" d="m42.42,192.63c0,.45-.37.82-.82.82s-.82-.37-.82-.82.37-.82.82-.82.82.37.82.82"/>
      <path class="cls-1" d="m26.06,169.09c0,.45-.37.82-.82.82s-.82-.37-.82-.82.37-.82.82-.82.82.37.82.82"/>
      <path class="cls-1" d="m13.05,148.55c0,.45-.37.82-.82.82s-.82-.37-.82-.82.37-.82.82-.82.82.37.82.82"/>
      <path class="cls-1" d="m11.5,141.69c0,.45-.37.82-.82.82s-.82-.37-.82-.82.37-.82.82-.82.82.37.82.82"/>
      <path class="cls-1" d="m11.1,143.91c0,.45-.37.82-.82.82s-.82-.37-.82-.82.37-.82.82-.82.82.37.82.82"/>
      <path class="cls-1" d="m15.91,165.75c0,.45-.37.82-.82.82s-.82-.37-.82-.82.37-.82.82-.82.82.37.82.82"/>
      <path class="cls-1" d="m23.73,179.68c0,.45-.37.82-.82.82s-.82-.37-.82-.82.37-.82.82-.82.82.37.82.82"/>
      <path class="cls-1" d="m30.63,187.19c0,.45-.37.82-.82.82s-.82-.37-.82-.82.37-.82.82-.82.82.37.82.82"/>
      <path class="cls-1" d="m42.75,195.94c0,.45-.37.82-.82.82s-.82-.37-.82-.82.37-.82.82-.82.82.37.82.82"/>
      <path class="cls-1" d="m59.56,201.72c0,.45-.37.82-.82.82s-.82-.37-.82-.82.37-.82.82-.82.82.37.82.82"/>
      <path class="cls-1" d="m80.06,203.71c0,.45-.37.82-.82.82s-.82-.37-.82-.82.37-.82.82-.82.82.37.82.82"/>
      <path class="cls-1" d="m94.86,206.54c0,.45-.37.82-.82.82s-.82-.37-.82-.82.37-.82.82-.82.82.37.82.82"/>
      <path class="cls-1" d="m145.49,205.46c0,.45-.37.82-.82.82s-.82-.37-.82-.82.37-.82.82-.82.82.37.82.82"/>
      <path class="cls-1" d="m156.28,204.25c0,.45-.37.82-.82.82s-.82-.37-.82-.82.37-.82.82-.82.82.37.82.82"/>
      <path class="cls-1" d="m164.2,199.46c0,.45-.37.82-.82.82s-.82-.37-.82-.82.37-.82.82-.82.82.37.82.82"/>
      <path class="cls-1" d="m172.44,194.07c0,.45-.37.82-.82.82s-.82-.37-.82-.82.37-.82.82-.82.82.37.82.82"/>
      <path class="cls-1" d="m180.28,189.34c0,.45-.37.82-.82.82s-.82-.37-.82-.82.37-.82.82-.82.82.37.82.82"/>
      <path class="cls-1" d="m186.11,184.6c0,.45-.37.82-.82.82s-.82-.37-.82-.82.37-.82.82-.82.82.37.82.82"/>
      <path class="cls-1" d="m192.62,179.8c0,.45-.37.82-.82.82s-.82-.37-.82-.82.37-.82.82-.82.82.37.82.82"/>
      <path class="cls-1" d="m193.99,175.78c0,.45-.37.82-.82.82s-.82-.37-.82-.82.37-.82.82-.82.82.37.82.82"/>
      <path class="cls-1" d="m190.72,178.43c0,.45-.37.82-.82.82s-.82-.37-.82-.82.37-.82.82-.82.82.37.82.82"/>
      <path class="cls-1" d="m176.08,192.47c0,.45-.37.82-.82.82s-.82-.37-.82-.82.37-.82.82-.82.82.37.82.82"/>
      <path class="cls-1" d="m155.41,199c0,.45-.37.82-.82.82s-.82-.37-.82-.82.37-.82.82-.82.82.37.82.82"/>
      <path class="cls-1" d="m98.21,201.01c0,.45-.37.82-.82.82s-.82-.37-.82-.82.37-.82.82-.82.82.37.82.82"/>
      <path class="cls-1" d="m84.25,195.52c0,.45-.37.82-.82.82s-.82-.37-.82-.82.37-.82.82-.82.82.37.82.82"/>
      <path class="cls-1" d="m64.92,186.33c0,.45-.37.82-.82.82s-.82-.37-.82-.82.37-.82.82-.82.82.37.82.82"/>
      <path class="cls-1" d="m52.91,177.48c0,.45-.37.82-.82.82s-.82-.37-.82-.82.37-.82.82-.82.82.37.82.82"/>
      <path class="cls-1" d="m42.59,168.33c0,.45-.37.82-.82.82s-.82-.37-.82-.82.37-.82.82-.82.82.37.82.82"/>
      <path class="cls-1" d="m35.94,159.87c0,.45-.37.82-.82.82s-.82-.37-.82-.82.37-.82.82-.82.82.37.82.82"/>
      <path class="cls-1" d="m30.1,145.72c0,.45-.37.82-.82.82s-.82-.37-.82-.82.37-.82.82-.82.82.37.82.82"/>
      <path class="cls-1" d="m23.95,121.29c0,.45-.37.82-.82.82s-.82-.37-.82-.82.37-.82.82-.82.82.37.82.82"/>
      <path class="cls-1" d="m21.21,98.92c0,.45-.37.82-.82.82s-.82-.37-.82-.82.37-.82.82-.82.82.37.82.82"/>
      <path class="cls-1" d="m24.1,81.12c0,.45-.37.82-.82.82s-.82-.37-.82-.82.37-.82.82-.82.82.37.82.82"/>
      <path class="cls-1" d="m32.99,57.53c0,.45-.37.82-.82.82s-.82-.37-.82-.82.37-.82.82-.82.82.37.82.82"/>
      <path class="cls-1" d="m37.09,49.46c0,.45-.37.82-.82.82s-.82-.37-.82-.82.37-.82.82-.82.82.37.82.82"/>
      <path class="cls-1" d="m40.08,44.19c0,.45-.37.82-.82.82s-.82-.37-.82-.82.37-.82.82-.82.82.37.82.82"/>
      <path class="cls-1" d="m38.9,52.73c0,.45-.37.82-.82.82s-.82-.37-.82-.82.37-.82.82-.82.82.37.82.82"/>
      <path class="cls-1" d="m29.12,97.37c0,.45-.37.82-.82.82s-.82-.37-.82-.82.37-.82.82-.82.82.37.82.82"/>
      <path class="cls-1" d="m27.67,121.25c0,.45-.37.82-.82.82s-.82-.37-.82-.82.37-.82.82-.82.82.37.82.82"/>
      <path class="cls-1" d="m27.16,136.9c0,.45-.37.82-.82.82s-.82-.37-.82-.82.37-.82.82-.82.82.37.82.82"/>
      <path class="cls-1" d="m28.35,131.14c0,.45-.37.82-.82.82s-.82-.37-.82-.82.37-.82.82-.82.82.37.82.82"/>
      <path class="cls-1" d="m36.98,74.73c0,.45-.37.82-.82.82s-.82-.37-.82-.82.37-.82.82-.82.82.37.82.82"/>
      <path class="cls-1" d="m44.12,54.7c0,.45-.37.82-.82.82s-.82-.37-.82-.82.37-.82.82-.82.82.37.82.82"/>
      <path class="cls-1" d="m44.32,66.15c0,.45-.37.82-.82.82s-.82-.37-.82-.82.37-.82.82-.82.82.37.82.82"/>
      <path class="cls-1" d="m37.07,87.74c0,.45-.37.82-.82.82s-.82-.37-.82-.82.37-.82.82-.82.82.37.82.82"/>
      <path class="cls-1" d="m46.62,48.16c0,.45-.37.82-.82.82s-.82-.37-.82-.82.37-.82.82-.82.82.37.82.82"/>
      <path class="cls-1" d="m53.16,35.1c0,.45-.37.82-.82.82s-.82-.37-.82-.82.37-.82.82-.82.82.37.82.82"/>
      <path class="cls-1" d="m49.49,46.47c0,.45-.37.82-.82.82s-.82-.37-.82-.82.37-.82.82-.82.82.37.82.82"/>
      <path class="cls-1" d="m66.59,18.46c0,.45-.37.82-.82.82s-.82-.37-.82-.82.37-.82.82-.82.82.37.82.82"/>
      <path class="cls-1" d="m62.36,18.43c0,.45-.37.82-.82.82s-.82-.37-.82-.82.37-.82.82-.82.82.37.82.82"/>
      <path class="cls-1" d="m22.26,55.53c0,.45-.37.82-.82.82s-.82-.37-.82-.82.37-.82.82-.82.82.37.82.82"/>
      <path class="cls-1" d="m34.8,30.42c0,.45-.37.82-.82.82s-.82-.37-.82-.82.37-.82.82-.82.82.37.82.82"/>
      <path class="cls-1" d="m31.53,42.84c0,.45-.37.82-.82.82s-.82-.37-.82-.82.37-.82.82-.82.82.37.82.82"/>
      <path class="cls-1" d="m39.49,40.22c0,.45-.37.82-.82.82s-.82-.37-.82-.82.37-.82.82-.82.82.37.82.82"/>
      <path class="cls-1" d="m52.28,30.8c0,.45-.37.82-.82.82s-.82-.37-.82-.82.37-.82.82-.82.82.37.82.82"/>
      <path class="cls-1" d="m44.14,45.75c0,.45-.37.82-.82.82s-.82-.37-.82-.82.37-.82.82-.82.82.37.82.82"/>
      <path class="cls-1" d="m75.83,24.07c0,.45-.37.82-.82.82s-.82-.37-.82-.82.37-.82.82-.82.82.37.82.82"/>
      <path class="cls-1" d="m77.65,24c0,.45-.37.82-.82.82s-.82-.37-.82-.82.37-.82.82-.82.82.37.82.82"/>
      <path class="cls-1" d="m121.32,14.94c0,.45-.37.82-.82.82s-.82-.37-.82-.82.37-.82.82-.82.82.37.82.82"/>
      <path class="cls-1" d="m133.99.82c0,.45-.37.82-.82.82s-.82-.37-.82-.82.37-.82.82-.82.82.37.82.82"/>
      <path class="cls-1" d="m143.74,4.51c0,.45-.37.82-.82.82s-.82-.37-.82-.82.37-.82.82-.82.82.37.82.82"/>
      <path class="cls-1" d="m151.07,11.87c0,.45-.37.82-.82.82s-.82-.37-.82-.82.37-.82.82-.82.82.37.82.82"/>
      <path class="cls-1" d="m144.93,27.61c0,.45-.37.82-.82.82s-.82-.37-.82-.82.37-.82.82-.82.82.37.82.82"/>
      <path class="cls-1" d="m107.38,19.75c0,.45-.37.82-.82.82s-.82-.37-.82-.82.37-.82.82-.82.82.37.82.82"/>
      <path class="cls-1" d="m85.28,26.16c0,.45-.37.82-.82.82s-.82-.37-.82-.82.37-.82.82-.82.82.37.82.82"/>
      <path class="cls-1" d="m83.46,27.14c0,.45-.37.82-.82.82s-.82-.37-.82-.82.37-.82.82-.82.82.37.82.82"/>
      <path class="cls-1" d="m141.32,28.02c0,.45-.37.82-.82.82s-.82-.37-.82-.82.37-.82.82-.82.82.37.82.82"/>
      <path class="cls-1" d="m153.38,33.8c0,.45-.37.82-.82.82s-.82-.37-.82-.82.37-.82.82-.82.82.37.82.82"/>
      <path class="cls-1" d="m163.16,39.97c0,.45-.37.82-.82.82s-.82-.37-.82-.82.37-.82.82-.82.82.37.82.82"/>
      <path class="cls-1" d="m176.33,43.96c0,.45-.37.82-.82.82s-.82-.37-.82-.82.37-.82.82-.82.82.37.82.82"/>
      <path class="cls-1" d="m182.98,47.39c0,.45-.37.82-.82.82s-.82-.37-.82-.82.37-.82.82-.82.82.37.82.82"/>
      <path class="cls-1" d="m182.21,48.78c0,.45-.37.82-.82.82s-.82-.37-.82-.82.37-.82.82-.82.82.37.82.82"/>
      <path class="cls-1" d="m167.57,34.75c0,.45-.37.82-.82.82s-.82-.37-.82-.82.37-.82.82-.82.82.37.82.82"/>
      <path class="cls-1" d="m121.71,24.93c0,.45-.37.82-.82.82s-.82-.37-.82-.82.37-.82.82-.82.82.37.82.82"/>
      <path class="cls-1" d="m90.18,29.25c0,.45-.37.82-.82.82s-.82-.37-.82-.82.37-.82.82-.82.82.37.82.82"/>
      <path class="cls-1" d="m56.8,42.46c0,.45-.37.82-.82.82s-.82-.37-.82-.82.37-.82.82-.82.82.37.82.82"/>
      <path class="cls-1" d="m36.22,58.12c0,.45-.37.82-.82.82s-.82-.37-.82-.82.37-.82.82-.82.82.37.82.82"/>
      <path class="cls-1" d="m24.63,76.47c0,.45-.37.82-.82.82s-.82-.37-.82-.82.37-.82.82-.82.82.37.82.82"/>
      <path class="cls-1" d="m16.45,105.21c0,.45-.37.82-.82.82s-.82-.37-.82-.82.37-.82.82-.82.82.37.82.82"/>
      <path class="cls-1" d="m14.5,114.4c0,.45-.37.82-.82.82s-.82-.37-.82-.82.37-.82.82-.82.82.37.82.82"/>
      <path class="cls-1" d="m11.35,81.79c0,.45-.37.82-.82.82s-.82-.37-.82-.82.37-.82.82-.82.82.37.82.82"/>
      <path class="cls-1" d="m10.02,70.07c0,.45-.37.82-.82.82s-.82-.37-.82-.82.37-.82.82-.82.82.37.82.82"/>
      <path class="cls-1" d="m6.29,100.2c0,.45-.37.82-.82.82s-.82-.37-.82-.82.37-.82.82-.82.82.37.82.82"/>
      <path class="cls-1" d="m4.88,135.53c0,.45-.37.82-.82.82s-.82-.37-.82-.82.37-.82.82-.82.82.37.82.82"/>
      <path class="cls-1" d="m9.52,150.81c0,.45-.37.82-.82.82s-.82-.37-.82-.82.37-.82.82-.82.82.37.82.82"/>
      <path class="cls-1" d="m19.95,169.06c0,.45-.37.82-.82.82s-.82-.37-.82-.82.37-.82.82-.82.82.37.82.82"/>
      <path class="cls-1" d="m25.39,175.11c0,.45-.37.82-.82.82s-.82-.37-.82-.82.37-.82.82-.82.82.37.82.82"/>
      <path class="cls-1" d="m27.38,154.32c0,.45-.37.82-.82.82s-.82-.37-.82-.82.37-.82.82-.82.82.37.82.82"/>
      <path class="cls-1" d="m23.12,95.89c0,.45-.37.82-.82.82s-.82-.37-.82-.82.37-.82.82-.82.82.37.82.82"/>
      <path class="cls-1" d="m21.66,82.48c0,.45-.37.82-.82.82s-.82-.37-.82-.82.37-.82.82-.82.82.37.82.82"/>
      <path class="cls-1" d="m22.06,115.66c0,.45-.37.82-.82.82s-.82-.37-.82-.82.37-.82.82-.82.82.37.82.82"/>
      <path class="cls-1" d="m21.55,127.17c0,.45-.37.82-.82.82s-.82-.37-.82-.82.37-.82.82-.82.82.37.82.82"/>
      <path class="cls-1" d="m19.21,76.91c0,.45-.37.82-.82.82s-.82-.37-.82-.82.37-.82.82-.82.82.37.82.82"/>
      <path class="cls-1" d="m16.21,89c0,.45-.37.82-.82.82s-.82-.37-.82-.82.37-.82.82-.82.82.37.82.82"/>
      <path class="cls-1" d="m12.31,86.54c0,.45-.37.82-.82.82s-.82-.37-.82-.82.37-.82.82-.82.82.37.82.82"/>
      <path class="cls-1" d="m20.09,64.73c0,.45-.37.82-.82.82s-.82-.37-.82-.82.37-.82.82-.82.82.37.82.82"/>
      <path class="cls-1" d="m17.69,86.51c0,.45-.37.82-.82.82s-.82-.37-.82-.82.37-.82.82-.82.82.37.82.82"/>
      <path class="cls-1" d="m33.31,51.49c0,.45-.37.82-.82.82s-.82-.37-.82-.82.37-.82.82-.82.82.37.82.82"/>
      <path class="cls-1" d="m34.19,64.39c0,.45-.37.82-.82.82s-.82-.37-.82-.82.37-.82.82-.82.82.37.82.82"/>
      <path class="cls-1" d="m41.57,46.82c0,.45-.37.82-.82.82s-.82-.37-.82-.82.37-.82.82-.82.82.37.82.82"/>
      <path class="cls-1" d="m43.92,47.59c0,.45-.37.82-.82.82s-.82-.37-.82-.82.37-.82.82-.82.82.37.82.82"/>
      <path class="cls-1" d="m50.99,42.52c0,.45-.37.82-.82.82s-.82-.37-.82-.82.37-.82.82-.82.82.37.82.82"/>
      <path class="cls-1" d="m59.52,32.93c0,.45-.37.82-.82.82s-.82-.37-.82-.82.37-.82.82-.82.82.37.82.82"/>
      <path class="cls-1" d="m61.46,33.44c0,.45-.37.82-.82.82s-.82-.37-.82-.82.37-.82.82-.82.82.37.82.82"/>
      <path class="cls-1" d="m62.49,31.11c0,.45-.37.82-.82.82s-.82-.37-.82-.82.37-.82.82-.82.82.37.82.82"/>
      <path class="cls-1" d="m58.12,36.79c0,.45-.37.82-.82.82s-.82-.37-.82-.82.37-.82.82-.82.82.37.82.82"/>
      <path class="cls-1" d="m34.5,73.65c0,.45-.37.82-.82.82s-.82-.37-.82-.82.37-.82.82-.82.82.37.82.82"/>
      <path class="cls-1" d="m24.74,103.64c0,.45-.37.82-.82.82s-.82-.37-.82-.82.37-.82.82-.82.82.37.82.82"/>
      <path class="cls-1" d="m23.13,113.47c0,.45-.37.82-.82.82s-.82-.37-.82-.82.37-.82.82-.82.82.37.82.82"/>
      <path class="cls-1" d="m21.67,129.64c0,.45-.37.82-.82.82s-.82-.37-.82-.82.37-.82.82-.82.82.37.82.82"/>
      <path class="cls-1" d="m22.42,149.52c0,.45-.37.82-.82.82s-.82-.37-.82-.82.37-.82.82-.82.82.37.82.82"/>
      <path class="cls-1" d="m24.87,154.78c0,.45-.37.82-.82.82s-.82-.37-.82-.82.37-.82.82-.82.82.37.82.82"/>
      <path class="cls-1" d="m33.8,165.1c0,.45-.37.82-.82.82s-.82-.37-.82-.82.37-.82.82-.82.82.37.82.82"/>
      <path class="cls-1" d="m43.16,179.61c0,.45-.37.82-.82.82s-.82-.37-.82-.82.37-.82.82-.82.82.37.82.82"/>
      <path class="cls-1" d="m45.04,181.25c0,.45-.37.82-.82.82s-.82-.37-.82-.82.37-.82.82-.82.82.37.82.82"/>
      <path class="cls-1" d="m25.33,157.54c0,.45-.37.82-.82.82s-.82-.37-.82-.82.37-.82.82-.82.82.37.82.82"/>
      <path class="cls-1" d="m19.48,137.43c0,.45-.37.82-.82.82s-.82-.37-.82-.82.37-.82.82-.82.82.37.82.82"/>
      <path class="cls-1" d="m27.64,147.08c0,.45-.37.82-.82.82s-.82-.37-.82-.82.37-.82.82-.82.82.37.82.82"/>
      <path class="cls-1" d="m41.81,174.68c0,.45-.37.82-.82.82s-.82-.37-.82-.82.37-.82.82-.82.82.37.82.82"/>
      <path class="cls-1" d="m53.99,188.64c0,.45-.37.82-.82.82s-.82-.37-.82-.82.37-.82.82-.82.82.37.82.82"/>
      <path class="cls-1" d="m61.2,197.55c0,.45-.37.82-.82.82s-.82-.37-.82-.82.37-.82.82-.82.82.37.82.82"/>
      <path class="cls-1" d="m68.26,205.37c0,.45-.37.82-.82.82s-.82-.37-.82-.82.37-.82.82-.82.82.37.82.82"/>
      <path class="cls-1" d="m77.75,208.73c0,.45-.37.82-.82.82s-.82-.37-.82-.82.37-.82.82-.82.82.37.82.82"/>
      <path class="cls-1" d="m91.75,209.56c0,.45-.37.82-.82.82s-.82-.37-.82-.82.37-.82.82-.82.82.37.82.82"/>
      <path class="cls-1" d="m96.1,210.94c0,.45-.37.82-.82.82s-.82-.37-.82-.82.37-.82.82-.82.82.37.82.82"/>
      <path class="cls-1" d="m78.09,206.05c0,.45-.37.82-.82.82s-.82-.37-.82-.82.37-.82.82-.82.82.37.82.82"/>
      <path class="cls-1" d="m62.66,198.69c0,.45-.37.82-.82.82s-.82-.37-.82-.82.37-.82.82-.82.82.37.82.82"/>
      <path class="cls-1" d="m52.68,193.15c0,.45-.37.82-.82.82s-.82-.37-.82-.82.37-.82.82-.82.82.37.82.82"/>
      <path class="cls-1" d="m53.26,191.49c0,.45-.37.82-.82.82s-.82-.37-.82-.82.37-.82.82-.82.82.37.82.82"/>
      <path class="cls-1" d="m69.21,197.34c0,.45-.37.82-.82.82s-.82-.37-.82-.82.37-.82.82-.82.82.37.82.82"/>
      <path class="cls-1" d="m81.71,206.4c0,.45-.37.82-.82.82s-.82-.37-.82-.82.37-.82.82-.82.82.37.82.82"/>
      <path class="cls-1" d="m83.57,206.7c0,.45-.37.82-.82.82s-.82-.37-.82-.82.37-.82.82-.82.82.37.82.82"/>
      <path class="cls-1" d="m66.28,197.8c0,.45-.37.82-.82.82s-.82-.37-.82-.82.37-.82.82-.82.82.37.82.82"/>
      <path class="cls-1" d="m48.23,185.65c0,.45-.37.82-.82.82s-.82-.37-.82-.82.37-.82.82-.82.82.37.82.82"/>
      <path class="cls-1" d="m46.49,186.06c0,.45-.37.82-.82.82s-.82-.37-.82-.82.37-.82.82-.82.82.37.82.82"/>
      <path class="cls-1" d="m74.93,200.59c0,.45-.37.82-.82.82s-.82-.37-.82-.82.37-.82.82-.82.82.37.82.82"/>
      <path class="cls-1" d="m139.16,208.15c0,.45-.37.82-.82.82s-.82-.37-.82-.82.37-.82.82-.82.82.37.82.82"/>
      <path class="cls-1" d="m147.38,208.05c0,.45-.37.82-.82.82s-.82-.37-.82-.82.37-.82.82-.82.82.37.82.82"/>
      <path class="cls-1" d="m148.78,207.02c0,.45-.37.82-.82.82s-.82-.37-.82-.82.37-.82.82-.82.82.37.82.82"/>
      <path class="cls-1" d="m92.94,211.86c0,.45-.37.82-.82.82s-.82-.37-.82-.82.37-.82.82-.82.82.37.82.82"/>
      <path class="cls-1" d="m71.99,203.15c0,.45-.37.82-.82.82s-.82-.37-.82-.82.37-.82.82-.82.82.37.82.82"/>
      <path class="cls-1" d="m58.58,191.4c0,.45-.37.82-.82.82s-.82-.37-.82-.82.37-.82.82-.82.82.37.82.82"/>
      <path class="cls-1" d="m48.29,181.06c0,.45-.37.82-.82.82s-.82-.37-.82-.82.37-.82.82-.82.82.37.82.82"/>
      <path class="cls-1" d="m38.57,168.12c0,.45-.37.82-.82.82s-.82-.37-.82-.82.37-.82.82-.82.82.37.82.82"/>
      <path class="cls-1" d="m31.5,156.19c0,.45-.37.82-.82.82s-.82-.37-.82-.82.37-.82.82-.82.82.37.82.82"/>
      <path class="cls-1" d="m23.38,143.47c0,.45-.37.82-.82.82s-.82-.37-.82-.82.37-.82.82-.82.82.37.82.82"/>
      <path class="cls-1" d="m17.3,131.3c0,.45-.37.82-.82.82s-.82-.37-.82-.82.37-.82.82-.82.82.37.82.82"/>
      <path class="cls-1" d="m14.59,111.52c0,.45-.37.82-.82.82s-.82-.37-.82-.82.37-.82.82-.82.82.37.82.82"/>
      <path class="cls-1" d="m13.29,88.95c0,.45-.37.82-.82.82s-.82-.37-.82-.82.37-.82.82-.82.82.37.82.82"/>
      <path class="cls-1" d="m17.22,61.62c0,.45-.37.82-.82.82s-.82-.37-.82-.82.37-.82.82-.82.82.37.82.82"/>
      <path class="cls-1" d="m24.48,38.54c0,.45-.37.82-.82.82s-.82-.37-.82-.82.37-.82.82-.82.82.37.82.82"/>
      <path class="cls-1" d="m33.95,23.54c0,.45-.37.82-.82.82s-.82-.37-.82-.82.37-.82.82-.82.82.37.82.82"/>
      <path class="cls-1" d="m45.52,14.52c0,.45-.37.82-.82.82s-.82-.37-.82-.82.37-.82.82-.82.82.37.82.82"/>
      <path class="cls-1" d="m58.74,8.79c0,.45-.37.82-.82.82s-.82-.37-.82-.82.37-.82.82-.82.82.37.82.82"/>
      <path class="cls-1" d="m57.87,10.15c0,.45-.37.82-.82.82s-.82-.37-.82-.82.37-.82.82-.82.82.37.82.82"/>
      <path class="cls-1" d="m37.53,36.74c0,.45-.37.82-.82.82s-.82-.37-.82-.82.37-.82.82-.82.82.37.82.82"/>
      <path class="cls-1" d="m17.8,79.2c0,.45-.37.82-.82.82s-.82-.37-.82-.82.37-.82.82-.82.82.37.82.82"/>
      <path class="cls-1" d="m8.68,109.15c0,.45-.37.82-.82.82s-.82-.37-.82-.82.37-.82.82-.82.82.37.82.82"/>
      <path class="cls-1" d="m3.69,140.69c0,.45-.37.82-.82.82s-.82-.37-.82-.82.37-.82.82-.82.82.37.82.82"/>
      <path class="cls-1" d="m2.88,152.47c0,.45-.37.82-.82.82s-.82-.37-.82-.82.37-.82.82-.82.82.37.82.82"/>
      <path class="cls-1" d="m6.96,91.9c0,.45-.37.82-.82.82s-.82-.37-.82-.82.37-.82.82-.82.82.37.82.82"/>
      <path class="cls-1" d="m14.41,78.09c0,.45-.37.82-.82.82s-.82-.37-.82-.82.37-.82.82-.82.82.37.82.82"/>
      <path class="cls-1" d="m15.2,74.83c0,.45-.37.82-.82.82s-.82-.37-.82-.82.37-.82.82-.82.82.37.82.82"/>
      <path class="cls-1" d="m8.99,98.8c0,.45-.37.82-.82.82s-.82-.37-.82-.82.37-.82.82-.82.82.37.82.82"/>
      <path class="cls-1" d="m1.91,135.35c0,.45-.37.82-.82.82s-.82-.37-.82-.82.37-.82.82-.82.82.37.82.82"/>
      <path class="cls-1" d="m4.96,152.5c0,.45-.37.82-.82.82s-.82-.37-.82-.82.37-.82.82-.82.82.37.82.82"/>
      <path class="cls-1" d="m5.76,156.62c0,.45-.37.82-.82.82s-.82-.37-.82-.82.37-.82.82-.82.82.37.82.82"/>
      <path class="cls-1" d="m2.32,123.09c0,.45-.37.82-.82.82s-.82-.37-.82-.82.37-.82.82-.82.82.37.82.82"/>
      <path class="cls-1" d="m9.15,79.09c0,.45-.37.82-.82.82s-.82-.37-.82-.82.37-.82.82-.82.82.37.82.82"/>
      <path class="cls-1" d="m11.02,74.86c0,.45-.37.82-.82.82s-.82-.37-.82-.82.37-.82.82-.82.82.37.82.82"/>
      <path class="cls-1" d="m1.64,105.52c0,.45-.37.82-.82.82s-.82-.37-.82-.82.37-.82.82-.82.82.37.82.82"/>
      <path class="cls-1" d="m4.24,108.06c0,.45-.37.82-.82.82s-.82-.37-.82-.82.37-.82.82-.82.82.37.82.82"/>
      <path class="cls-1" d="m18.36,74.92c0,.45-.37.82-.82.82s-.82-.37-.82-.82.37-.82.82-.82.82.37.82.82"/>
      <path class="cls-1" d="m22.33,104.14c0,.45-.37.82-.82.82s-.82-.37-.82-.82.37-.82.82-.82.82.37.82.82"/>
      <path class="cls-1" d="m30.15,84.94c0,.45-.37.82-.82.82s-.82-.37-.82-.82.37-.82.82-.82.82.37.82.82"/>
      <path class="cls-1" d="m26.5,101.08c0,.45-.37.82-.82.82s-.82-.37-.82-.82.37-.82.82-.82.82.37.82.82"/>
      <path class="cls-1" d="m19.02,121.59c0,.45-.37.82-.82.82s-.82-.37-.82-.82.37-.82.82-.82.82.37.82.82"/>
      <g>
        <path class="cls-1" d="m51.17,98.16c0,.25-.2.45-.45.45s-.45-.2-.45-.45.2-.45.45-.45.45.2.45.45"/>
        <path class="cls-1" d="m69.59,104.99c-.19,0-.39-.23-.59-.7-1.19-2.63-2.77-4.65-4.73-6.08-1.96-1.43-4.05-2.14-6.26-2.14-1.82,0-3.59.55-5.29,1.65-1.71,1.1-3.1,2.8-4.18,5.09-1.08,2.3-1.62,4.74-1.62,7.33,0,3.7,1.11,6.9,3.32,9.6,2.22,2.7,4.98,4.04,8.31,4.04,1.18,0,2.19-.18,3.02-.55.83-.36,1.61-.89,2.35-1.57.74-.68,1.18-1.19,1.33-1.53.15-.33.23-1.22.23-2.64,0-2.39-.32-3.96-.95-4.72-.63-.76-1.65-1.14-3.05-1.14l-.68.02c-.42,0-.63-.14-.63-.42,0-.33.23-.5.7-.5l1.16.04,4.94-.06,6.06-.13c.33,0,.5.15.5.46s-.19.47-.57.5c-.9.09-1.64.28-2.21.59-.57.31-.92.66-1.05,1.05-.13.39-.2,1.06-.2,1.99,0,3.41-.08,5.28-.24,5.62-.16.34-1.52,1.1-4.07,2.29-2.55,1.19-5.11,1.79-7.69,1.79-4.27,0-7.92-1.37-10.95-4.11-3.03-2.74-4.55-6.21-4.55-10.4,0-2.89.72-5.5,2.15-7.84,1.43-2.34,3.4-4.15,5.89-5.44,2.49-1.29,5.03-1.93,7.61-1.93,2.42,0,5.03.69,7.83,2.08.79.39,1.34.59,1.66.59.45,0,.8-.2,1.05-.59.22-.33.42-.5.59-.5.33,0,.53.42.59,1.27.09,1.33.3,3.35.63,6.08.03.15.04.28.04.39,0,.35-.15.52-.46.52"/>
        <path class="cls-1" d="m94.32,109.76c2.02.88,3.43,1.79,4.22,2.75.79.96,1.37,2.43,1.75,4.43.49,2.62,1.17,4.39,2.04,5.29.87.9,2.01,1.39,3.42,1.44.39.03.59.17.59.43s-.23.38-.68.38c-4.08,0-6.55-.13-7.42-.4-.87-.27-1.51-1.76-1.94-4.47-.39-2.64-.81-4.56-1.24-5.78-.43-1.22-1.11-2.15-2.06-2.8-.94-.65-2.41-.97-4.4-.97-.76,0-1.62.08-2.58.24-.07.92-.11,1.87-.11,2.86,0,3.74.05,6.16.15,7.26.1,1.1.41,1.9.93,2.4.52.5,1.38.77,2.59.8.52.01.79.14.79.38,0,.29-.32.43-.96.43h-10.82c-.63,0-.94-.14-.94-.43,0-.25.25-.38.74-.38,1.11,0,1.88-.17,2.31-.5.43-.33.77-.86,1.02-1.56.25-.71.37-1.98.37-3.83l-.04-4.46.02-6.79c0-3.47-.08-5.76-.23-6.88s-.43-1.87-.82-2.26c-.39-.39-1.31-.69-2.73-.91-.31-.04-.46-.17-.46-.37,0-.23.31-.35.92-.35l12.94-.28c3.57,0,6.16.68,7.77,2.05,1.61,1.37,2.42,3.04,2.42,5.02,0,1.25-.33,2.4-.97,3.43-.65,1.03-1.42,1.78-2.31,2.25-.89.47-2.32,1-4.28,1.59m-8.28-.56c2.8-.06,4.9-.25,6.29-.59,1.4-.33,2.59-1.07,3.57-2.21.98-1.14,1.47-2.48,1.47-4.04,0-1.65-.55-3.08-1.64-4.31-1.09-1.22-2.84-1.84-5.25-1.84-1.31,0-2.76.17-4.35.52-.17,4.01-.26,7.2-.26,9.57,0,.82.05,1.78.15,2.88"/>
        <path class="cls-1" d="m166.65,97.62c.8-.71,1.26-1.19,1.38-1.44.14-.35.36-.52.63-.52s.45.26.48.79l.48,7.63c0,.44-.02.7-.05.8-.04.1-.14.14-.32.14-.23,0-.48-.31-.74-.94-.96-2.32-2.3-4.22-4.02-5.71-1.73-1.47-3.61-2.21-5.64-2.21-1.78,0-3.41.57-4.9,1.72-1.49,1.14-2.64,2.78-3.46,4.9-.82,2.12-1.24,4.4-1.24,6.83,0,4.14,1.14,7.5,3.42,10.09,2.28,2.59,4.83,3.88,7.64,3.88,1.91,0,3.66-.6,5.27-1.81,1.6-1.21,2.81-2.61,3.63-4.2.22-.44.44-.66.68-.66.32,0,.48.18.48.53,0,.42-.55,1.35-1.66,2.78-1.11,1.43-2.56,2.59-4.36,3.47s-3.74,1.33-5.8,1.33c-2.43,0-4.75-.62-6.94-1.86-2.19-1.24-3.93-2.95-5.21-5.14-1.28-2.19-1.92-4.75-1.92-7.69s.62-5.49,1.87-7.8c1.25-2.32,3-4.12,5.26-5.4,2.26-1.28,4.59-1.92,7-1.92,1.28,0,2.6.2,3.94.6s2.71,1.01,4.11,1.82"/>
        <path class="cls-1" d="m198.16,96.07c.42,1.63.84,3.92,1.25,6.86-.07.12-.15.17-.23.17-.1,0-.21-.06-.32-.17-1-1.62-1.97-2.85-2.89-3.69-.92-.85-1.84-1.45-2.77-1.8-.93-.36-2.52-.54-4.78-.54-2.13,0-3.81.12-5.05.37-.12.14-.17.41-.17.81,0,.1-.02.28-.04.55-.15,1.16-.22,4.32-.22,9.47,0,.22.01.52.04.92,1.11.04,1.87.07,2.28.07,1.84,0,3.17-.28,3.99-.82.82-.55,1.54-1.73,2.15-3.55.1-.31.25-.46.43-.46.27,0,.41.21.41.64l-.09.88c-.12,1.15-.18,2.34-.18,3.57,0,1.99.04,3.77.11,5.37,0,.5-.13.75-.4.75-.2,0-.33-.18-.4-.53-.31-1.72-.95-2.96-1.93-3.72-.98-.76-3.11-1.14-6.38-1.14-.04,1.06-.07,2.78-.07,5.16,0,3.07.11,5.03.33,5.86.22.83.74,1.49,1.57,1.98.83.49,2.24.73,4.22.73,5.67,0,9.33-1.95,10.98-5.86.2-.48.41-.72.63-.72.23,0,.35.16.35.48,0,.17-.04.36-.11.57-.09.28-.3,1.31-.63,3.1-.07.38-.35,1.52-.83,3.41l-9.16-.02c-1.31,0-3.24-.06-5.78-.16-2.54-.11-4.79-.17-6.75-.17-1.96,0-2.98-.05-3.07-.12-.09-.07-.13-.15-.13-.24,0-.29.24-.44.72-.44,1.62,0,2.68-.43,3.19-1.29.51-.86.76-2.95.76-6.27l-.02-4.48.07-4.19c0-.84-.05-2.44-.14-4.79-.1-2.35-.18-3.69-.26-4.03s-.31-.67-.68-.99c-.37-.33-1.19-.66-2.46-.99-.38-.1-.57-.26-.57-.48,0-.26.26-.39.76-.39l4.46.24c1.57.07,5.44.11,11.61.11,4.05,0,6.12,0,6.21.02"/>
        <path class="cls-1" d="m125.48,95.24h1.01c1.63,3.34,3.87,9.04,6.74,17.12,1.85,5.17,3.11,8.35,3.8,9.52.69,1.17,1.79,1.82,3.31,1.96.48.04.72.2.72.48,0,.2-.12.31-.37.31l-.31-.02c-1.34-.12-3.05-.18-5.11-.18-3.18,0-5.22.05-6.12.15-.45,0-.68-.13-.68-.39,0-.19.17-.31.5-.35,1.24-.12,2.1-.33,2.57-.63.47-.31.71-.79.71-1.44s-.44-2.19-1.33-4.7l-1.29-3.76c-.76,0-4.15.04-10.16.13-1.52,4.04-2.28,6.58-2.28,7.64,0,.89.38,1.56,1.13,1.99.75.43,1.49.67,2.22.71.54.04.81.21.81.49,0,.11-.09.22-.26.32-2.33-.1-3.74-.15-4.22-.15-2.45,0-4.1.03-4.94.09-.47,0-.7-.13-.7-.39,0-.23.2-.38.61-.44,1.67-.22,2.96-1.36,3.85-3.41.89-2.05,2.27-5.75,4.16-11.08,1.72-4.85,3.6-9.5,5.64-13.94m-.87,4.76c-1.36,2.77-2.94,6.79-4.75,12.07,1.5-.07,2.58-.11,3.23-.11l6.14.11c-.54-1.51-1.3-3.53-2.27-6.03-1.19-2.99-1.98-5-2.36-6.03"/>
      </g>
      <path class="cls-1" d="m111.91,205.71c-.04,2.37-.06,3.87-.06,4.52,0,2.18.05,3.43.14,3.75.09.32.43.51,1.02.56.26.03.39.08.39.17,0,.16-.1.24-.31.24-.05,0-.11,0-.18-.01-.22-.02-.59-.03-1.11-.03-1.07,0-1.89.01-2.48.04-.13,0-.22,0-.3,0-.21,0-.32-.06-.32-.18,0-.12.11-.19.34-.21.69-.05,1.1-.21,1.26-.48.15-.27.23-.89.23-1.84,0-2.62-.01-4.3-.04-5.04-.03-.74-.14-1.23-.35-1.47-.21-.24-.53-.37-.97-.37-.28,0-.46-.02-.53-.05-.07-.04-.11-.1-.11-.18,0-.1.12-.15.36-.16.45,0,.94-.08,1.46-.22.52-.14.93-.31,1.22-.51.07-.05.13-.08.18-.08.11,0,.16.09.16.28v1.27Z"/>
      <path class="cls-1" d="m120.93,204.17c1.19,0,2.23.54,3.1,1.63.88,1.09,1.32,2.34,1.32,3.77s-.44,2.73-1.32,3.85c-.88,1.12-1.97,1.68-3.25,1.68s-2.28-.53-3.13-1.6c-.85-1.07-1.28-2.34-1.28-3.81,0-1,.21-1.91.64-2.75.43-.84.97-1.51,1.64-2.01s1.43-.76,2.29-.76m-.02.38c-.88,0-1.58.46-2.11,1.38-.53.92-.8,2.18-.8,3.77s.28,2.76.83,3.66c.55.9,1.22,1.34,2.01,1.34s1.49-.37,2.03-1.12c.53-.75.8-2.13.8-4.14,0-1.65-.25-2.88-.76-3.69-.5-.81-1.17-1.21-2-1.21"/>
      <path class="cls-1" d="m132.16,205.71c-.04,2.37-.06,3.87-.06,4.52,0,2.18.05,3.43.14,3.75.09.32.43.51,1.02.56.26.03.4.08.4.17,0,.16-.1.24-.31.24-.05,0-.11,0-.18-.01-.22-.02-.59-.03-1.11-.03-1.07,0-1.9.01-2.48.04-.12,0-.22,0-.3,0-.21,0-.32-.06-.32-.18,0-.12.11-.19.34-.21.68-.05,1.1-.21,1.25-.48.15-.27.23-.89.23-1.84,0-2.62-.01-4.3-.04-5.04-.03-.74-.14-1.23-.35-1.47-.2-.24-.53-.37-.97-.37-.28,0-.46-.02-.53-.05-.07-.04-.11-.1-.11-.18,0-.1.12-.15.36-.16.46,0,.94-.08,1.46-.22.52-.14.93-.31,1.22-.51.07-.05.13-.08.18-.08.11,0,.16.09.16.28v1.27Z"/>
      <g>
        <path class="cls-1" d="m54.31,131.97c0,.77,0,1.4.04,1.74.02.23.07.41.31.44.11.02.29.03.36.03.05,0,.06.02.06.05,0,.04-.04.06-.13.06-.44,0-.94-.02-.98-.02s-.54.02-.78.02c-.09,0-.13-.02-.13-.06,0-.02.02-.05.06-.05.07,0,.17-.02.24-.03.16-.03.2-.21.23-.44.04-.34.04-.97.04-1.74v-1.41c0-1.25,0-1.47-.02-1.73-.02-.27-.1-.41-.27-.45-.09-.02-.19-.03-.25-.03-.03,0-.06-.02-.06-.05,0-.05.04-.06.13-.06.26,0,.77.02.81.02s.54-.02.78-.02c.09,0,.13.02.13.06,0,.03-.03.05-.06.05-.06,0-.1,0-.2.02-.22.04-.28.18-.3.46-.02.26-.02.48-.02,1.73v1.41Z"/>
        <path class="cls-1" d="m57.69,133.2c.02.66.1.86.31.93.15.04.33.05.4.05.04,0,.06.02.06.05,0,.05-.05.06-.14.06-.46,0-.78-.02-.85-.02s-.41.02-.77.02c-.08,0-.13,0-.13-.06,0-.03.02-.05.06-.05.06,0,.21,0,.33-.05.2-.06.24-.29.24-1.02v-4.58c0-.31.03-.4.1-.4s.2.18.28.26c.12.14,1.31,1.42,2.54,2.74.79.85,1.66,1.82,1.92,2.09l-.09-4.06c0-.52-.06-.7-.31-.76-.14-.03-.33-.04-.39-.04-.06,0-.06-.02-.06-.06,0-.05.06-.06.16-.06.36,0,.74.02.83.02s.35-.02.68-.02c.09,0,.14,0,.14.06,0,.03-.03.06-.09.06-.04,0-.1,0-.19.02-.26.06-.3.23-.3.71l-.02,4.69c0,.53-.02.57-.07.57-.06,0-.16-.09-.58-.51-.09-.08-1.24-1.26-2.09-2.17-.93-1-1.83-2.01-2.09-2.29l.1,3.83Z"/>
        <path class="cls-1" d="m65.37,130.56c0-1.25,0-1.47-.02-1.73-.02-.27-.08-.4-.34-.46-.06-.02-.2-.02-.27-.02-.03,0-.06-.02-.06-.05,0-.05.04-.06.13-.06.36,0,.86.02.9.02.1,0,.6-.02,1.08-.02.79,0,2.25-.07,3.21.91.4.42.78,1.08.78,2.03,0,1.01-.42,1.78-.86,2.25-.34.36-1.06.92-2.42.92-.34,0-.77-.02-1.11-.05-.35-.02-.62-.05-.66-.05-.02,0-.15,0-.32,0-.16,0-.34.02-.46.02-.09,0-.13-.02-.13-.06,0-.02.02-.05.06-.05.07,0,.17-.02.24-.03.16-.03.2-.21.23-.44.04-.34.04-.97.04-1.74v-1.41Zm.67.86c0,.85,0,1.58.02,1.73,0,.2.02.52.09.61.1.15.42.32,1.36.32.74,0,1.43-.27,1.9-.74.42-.41.64-1.18.64-1.91,0-1.02-.44-1.67-.77-2.01-.75-.79-1.66-.9-2.61-.9-.16,0-.46.02-.52.06-.07.03-.1.07-.1.16,0,.27,0,1.09,0,1.7v.99Z"/>
        <path class="cls-1" d="m72.95,130.56c0-1.25,0-1.47-.02-1.73-.02-.27-.08-.4-.34-.46-.06-.02-.2-.02-.27-.02-.03,0-.06-.02-.06-.05,0-.05.04-.06.13-.06.18,0,.4,0,.58,0l.33.02c.06,0,1.65,0,1.83,0,.15,0,.28-.02.34-.04.04,0,.07-.04.11-.04.02,0,.03.03.03.07,0,.06-.04.15-.06.38,0,.08-.02.43-.04.53,0,.04-.02.09-.06.09-.05,0-.06-.04-.06-.1,0-.06,0-.19-.05-.29-.06-.13-.14-.22-.57-.27-.14-.02-1.01-.02-1.1-.02-.03,0-.05.02-.05.08v2.21c0,.06,0,.08.05.08.1,0,1.09,0,1.27-.02.19-.02.3-.03.38-.11.06-.06.09-.1.12-.1.02,0,.04.02.04.06s-.04.18-.06.45c-.02.16-.03.46-.03.51,0,.06,0,.15-.06.15-.04,0-.06-.03-.06-.07,0-.08,0-.16-.03-.26-.03-.11-.1-.25-.42-.28-.22-.02-1.01-.04-1.14-.04-.04,0-.06.02-.06.06v.7c0,.27,0,1.2,0,1.37.02.55.14.66.93.66.21,0,.56,0,.77-.09s.3-.25.36-.58c.02-.09.03-.12.07-.12.05,0,.05.06.05.12,0,.06-.06.61-.1.78-.06.21-.12.21-.43.21-.6,0-1.04-.02-1.35-.02-.31-.02-.5-.02-.62-.02-.02,0-.15,0-.32,0-.16,0-.34.02-.46.02-.09,0-.13-.02-.13-.06,0-.02.02-.05.06-.05.07,0,.17-.02.24-.03.16-.03.2-.21.23-.44.04-.34.04-.97.04-1.74v-1.41Z"/>
        <path class="cls-1" d="m78.15,130.56c0-1.25,0-1.47-.02-1.73-.02-.27-.08-.4-.34-.46-.06-.02-.2-.02-.27-.02-.03,0-.06-.02-.06-.05,0-.05.04-.06.13-.06.36,0,.84.02.9.02.18,0,.64-.02,1.01-.02,1,0,1.36.34,1.49.46.18.17.4.53.4.95,0,1.14-.83,1.9-1.97,1.9-.04,0-.13,0-.17,0-.04,0-.09-.02-.09-.06,0-.06.05-.07.22-.07.78,0,1.38-.57,1.38-1.3,0-.26-.02-.8-.45-1.23-.42-.43-.91-.4-1.1-.4-.14,0-.27.02-.34.05-.05.02-.06.07-.06.15v3.29c0,.77,0,1.4.04,1.74.02.23.07.41.31.44.11.02.29.03.36.03.05,0,.06.02.06.05,0,.04-.04.06-.13.06-.44,0-.94-.02-.98-.02-.02,0-.53.02-.77.02-.09,0-.13-.02-.13-.06,0-.02.02-.05.06-.05.07,0,.17-.02.24-.03.16-.03.2-.21.23-.44.04-.34.04-.97.04-1.74v-1.41Z"/>
        <path class="cls-1" d="m83.48,130.56c0-1.25,0-1.47-.02-1.73-.02-.27-.08-.4-.34-.46-.06-.02-.2-.02-.27-.02-.03,0-.06-.02-.06-.05,0-.05.04-.06.13-.06.18,0,.4,0,.58,0l.33.02c.06,0,1.65,0,1.83,0,.15,0,.28-.02.34-.04.04,0,.07-.04.11-.04.02,0,.03.03.03.07,0,.06-.04.15-.06.38,0,.08-.02.43-.04.53,0,.04-.02.09-.06.09-.05,0-.06-.04-.06-.1,0-.06,0-.19-.05-.29-.06-.13-.14-.22-.57-.27-.14-.02-1.01-.02-1.1-.02-.03,0-.05.02-.05.08v2.21c0,.06,0,.08.05.08.1,0,1.09,0,1.27-.02.19-.02.3-.03.38-.11.06-.06.09-.1.12-.1.02,0,.04.02.04.06s-.04.18-.06.45c-.02.16-.03.46-.03.51,0,.06,0,.15-.06.15-.04,0-.06-.03-.06-.07,0-.08,0-.16-.03-.26-.03-.11-.1-.25-.42-.28-.22-.02-1.01-.04-1.14-.04-.04,0-.06.02-.06.06v.7c0,.27,0,1.2,0,1.37.02.55.14.66.93.66.21,0,.56,0,.77-.09.21-.09.3-.25.36-.58.02-.09.03-.12.07-.12.05,0,.05.06.05.12,0,.06-.06.61-.1.78-.06.21-.12.21-.43.21-.6,0-1.04-.02-1.35-.02-.31-.02-.5-.02-.62-.02-.02,0-.15,0-.32,0-.16,0-.34.02-.46.02-.09,0-.13-.02-.13-.06,0-.02.02-.05.06-.05.07,0,.17-.02.24-.03.16-.03.2-.21.23-.44.04-.34.04-.97.04-1.74v-1.41Z"/>
        <path class="cls-1" d="m88.9,133.2c.02.66.1.86.31.93.15.04.33.05.4.05.04,0,.06.02.06.05,0,.05-.05.06-.14.06-.46,0-.78-.02-.85-.02s-.41.02-.77.02c-.08,0-.13,0-.13-.06,0-.03.02-.05.06-.05.06,0,.21,0,.33-.05.2-.06.24-.29.24-1.02v-4.58c0-.31.03-.4.1-.4s.2.18.28.26c.12.14,1.31,1.42,2.54,2.74.79.85,1.66,1.82,1.92,2.09l-.09-4.06c0-.52-.06-.7-.31-.76-.14-.03-.33-.04-.39-.04-.06,0-.06-.02-.06-.06,0-.05.06-.06.16-.06.36,0,.74.02.83.02s.35-.02.68-.02c.09,0,.14,0,.14.06,0,.03-.03.06-.09.06-.04,0-.1,0-.19.02-.26.06-.3.23-.3.71l-.02,4.69c0,.53-.02.57-.07.57-.06,0-.16-.09-.58-.51-.09-.08-1.24-1.26-2.09-2.17-.93-1-1.83-2.01-2.09-2.29l.1,3.83Z"/>
        <path class="cls-1" d="m96.58,130.56c0-1.25,0-1.47-.02-1.73-.02-.27-.08-.4-.34-.46-.06-.02-.2-.02-.27-.02-.03,0-.06-.02-.06-.05,0-.05.04-.06.13-.06.36,0,.86.02.9.02.1,0,.6-.02,1.08-.02.79,0,2.25-.07,3.21.91.4.42.78,1.08.78,2.03,0,1.01-.42,1.78-.86,2.25-.34.36-1.06.92-2.42.92-.34,0-.77-.02-1.11-.05-.35-.02-.62-.05-.66-.05-.02,0-.15,0-.32,0-.16,0-.34.02-.46.02-.09,0-.13-.02-.13-.06,0-.02.02-.05.06-.05.07,0,.17-.02.24-.03.16-.03.2-.21.23-.44.04-.34.04-.97.04-1.74v-1.41Zm.67.86c0,.85,0,1.58.02,1.73,0,.2.02.52.09.61.1.15.42.32,1.36.32.74,0,1.43-.27,1.9-.74.42-.41.64-1.18.64-1.91,0-1.02-.44-1.67-.77-2.01-.75-.79-1.66-.9-2.61-.9-.16,0-.46.02-.52.06-.07.03-.1.07-.1.16,0,.27,0,1.09,0,1.7v.99Z"/>
        <path class="cls-1" d="m104.16,130.56c0-1.25,0-1.47-.02-1.73-.02-.27-.08-.4-.34-.46-.06-.02-.2-.02-.27-.02-.03,0-.06-.02-.06-.05,0-.05.04-.06.13-.06.18,0,.4,0,.58,0l.33.02c.06,0,1.65,0,1.83,0,.15,0,.28-.02.34-.04.04,0,.07-.04.11-.04.02,0,.03.03.03.07,0,.06-.04.15-.06.38,0,.08-.02.43-.04.53,0,.04-.02.09-.06.09-.05,0-.06-.04-.06-.1,0-.06,0-.19-.05-.29-.06-.13-.14-.22-.57-.27-.14-.02-1.01-.02-1.1-.02-.03,0-.05.02-.05.08v2.21c0,.06,0,.08.05.08.1,0,1.09,0,1.27-.02.19-.02.3-.03.38-.11.06-.06.09-.1.12-.1.02,0,.04.02.04.06s-.04.18-.06.45c-.02.16-.03.46-.03.51,0,.06,0,.15-.06.15-.04,0-.06-.03-.06-.07,0-.08,0-.16-.03-.26-.03-.11-.1-.25-.42-.28-.22-.02-1.01-.04-1.14-.04-.04,0-.06.02-.06.06v.7c0,.27,0,1.2,0,1.37.02.55.14.66.93.66.21,0,.56,0,.77-.09.21-.09.3-.25.36-.58.02-.09.03-.12.07-.12.05,0,.05.06.05.12,0,.06-.06.61-.1.78-.06.21-.12.21-.43.21-.6,0-1.04-.02-1.35-.02-.31-.02-.5-.02-.62-.02-.02,0-.15,0-.32,0-.16,0-.34.02-.46.02-.09,0-.13-.02-.13-.06,0-.02.02-.05.06-.05.07,0,.17-.02.24-.03.16-.03.2-.21.23-.44.04-.34.04-.97.04-1.74v-1.41Z"/>
        <path class="cls-1" d="m109.57,133.2c.02.66.1.86.31.93.15.04.33.05.4.05.04,0,.06.02.06.05,0,.05-.05.06-.14.06-.46,0-.78-.02-.85-.02s-.41.02-.77.02c-.08,0-.13,0-.13-.06,0-.03.02-.05.06-.05.06,0,.21,0,.33-.05.2-.06.24-.29.24-1.02v-4.58c0-.31.03-.4.1-.4s.2.18.28.26c.12.14,1.31,1.42,2.54,2.74.79.85,1.66,1.82,1.92,2.09l-.09-4.06c0-.52-.06-.7-.31-.76-.14-.03-.33-.04-.39-.04-.06,0-.06-.02-.06-.06,0-.05.06-.06.16-.06.36,0,.74.02.83.02s.35-.02.68-.02c.09,0,.14,0,.14.06,0,.03-.03.06-.09.06-.04,0-.1,0-.19.02-.26.06-.3.23-.3.71l-.02,4.69c0,.53-.02.57-.07.57-.06,0-.16-.09-.58-.51-.09-.08-1.24-1.26-2.09-2.17-.93-1-1.83-2.01-2.09-2.29l.1,3.83Z"/>
        <path class="cls-1" d="m118.95,131.97c0,.77,0,1.4.04,1.74.02.23.07.41.31.44.11.02.29.03.36.03.05,0,.06.02.06.05,0,.04-.04.06-.13.06-.44,0-.94-.02-.98-.02s-.54.02-.78.02c-.09,0-.13-.02-.13-.06,0-.02.02-.05.06-.05.07,0,.17-.02.24-.03.16-.03.2-.21.23-.44.04-.34.04-.97.04-1.74v-3.38l-1.18.02c-.5,0-.69.06-.82.26-.09.14-.11.19-.14.25-.02.06-.05.08-.08.08-.02,0-.04-.02-.04-.07,0-.08.16-.77.18-.83.02-.05.05-.15.08-.15.06,0,.14.08.35.1.23.02.54.04.63.04h3c.26,0,.44-.02.57-.04.12-.02.19-.04.22-.04.04,0,.04.05.04.1,0,.24-.02.79-.02.88,0,.07-.02.1-.06.1-.04,0-.06-.02-.06-.14v-.09c-.03-.24-.22-.42-.99-.44l-1.01-.02v3.38Z"/>
        <path class="cls-1" d="m126.69,131.98c0,1.18.03,1.69.18,1.83.13.13.34.18.96.18.42,0,.78,0,.97-.24.1-.13.18-.33.21-.48,0-.06.02-.1.07-.1.04,0,.05.03.05.12s-.06.57-.12.8c-.06.18-.08.22-.5.22-.58,0-.99-.02-1.33-.02-.34-.02-.58-.02-.82-.02-.03,0-.17,0-.33,0-.16,0-.34.02-.46.02-.09,0-.13-.02-.13-.06,0-.02.02-.05.06-.05.07,0,.17-.02.24-.03.16-.03.2-.21.23-.44.04-.34.04-.97.04-1.74v-1.41c0-1.25,0-1.47-.02-1.73-.02-.27-.08-.4-.34-.46-.06-.02-.2-.02-.27-.02-.03,0-.06-.02-.06-.05,0-.05.04-.06.13-.06.36,0,.86.02.9.02s.62-.02.86-.02c.09,0,.13.02.13.06,0,.03-.03.05-.06.05-.06,0-.17,0-.26.02-.23.04-.3.18-.31.46-.02.26-.02.48-.02,1.73v1.42Z"/>
        <path class="cls-1" d="m131.75,131.97c0,.77,0,1.4.04,1.74.02.23.07.41.31.44.11.02.29.03.36.03.05,0,.06.02.06.05,0,.04-.04.06-.13.06-.44,0-.94-.02-.98-.02s-.54.02-.78.02c-.09,0-.13-.02-.13-.06,0-.02.02-.05.06-.05.07,0,.17-.02.24-.03.16-.03.2-.21.23-.44.04-.34.04-.97.04-1.74v-1.41c0-1.25,0-1.47-.02-1.73-.02-.27-.1-.41-.27-.45-.09-.02-.19-.03-.25-.03-.03,0-.06-.02-.06-.05,0-.05.04-.06.13-.06.26,0,.77.02.81.02s.54-.02.78-.02c.09,0,.13.02.13.06,0,.03-.03.05-.06.05-.06,0-.1,0-.2.02-.22.04-.28.18-.3.46-.02.26-.02.48-.02,1.73v1.41Z"/>
        <path class="cls-1" d="m136.65,133.31c.46-1.07,1.54-3.86,1.71-4.44.04-.12.07-.23.07-.3,0-.06-.02-.14-.1-.18-.1-.03-.22-.03-.3-.03-.05,0-.09,0-.09-.05,0-.05.05-.06.18-.06.32,0,.69.02.78.02.05,0,.39-.02.62-.02.09,0,.14.02.14.06s-.03.06-.1.06c-.06,0-.23,0-.38.1-.1.07-.22.21-.44.75-.09.22-.49,1.18-.9,2.17-.49,1.17-.85,2.03-1.03,2.42-.22.48-.26.61-.34.61-.1,0-.14-.11-.29-.5l-1.96-4.9c-.18-.45-.3-.54-.58-.62-.12-.03-.26-.03-.3-.03s-.06-.02-.06-.06c0-.05.08-.06.21-.06.38,0,.84.02.94.02.08,0,.44-.02.74-.02.14,0,.22.02.22.06s-.02.06-.08.06c-.09,0-.23,0-.3.04-.09.04-.1.1-.1.16,0,.1.1.35.22.66l1.54,4.09Z"/>
        <path class="cls-1" d="m141.84,131.97c0,.77,0,1.4.04,1.74.02.23.07.41.31.44.11.02.29.03.36.03.05,0,.06.02.06.05,0,.04-.04.06-.13.06-.44,0-.94-.02-.98-.02s-.54.02-.78.02c-.09,0-.13-.02-.13-.06,0-.02.02-.05.06-.05.07,0,.17-.02.24-.03.16-.03.2-.21.23-.44.04-.34.04-.97.04-1.74v-1.41c0-1.25,0-1.47-.02-1.73-.02-.27-.1-.41-.27-.45-.09-.02-.19-.03-.25-.03-.03,0-.06-.02-.06-.05,0-.05.04-.06.13-.06.26,0,.77.02.81.02s.54-.02.78-.02c.09,0,.13.02.13.06,0,.03-.03.05-.06.05-.06,0-.1,0-.2.02-.22.04-.28.18-.3.46-.02.26-.02.48-.02,1.73v1.41Z"/>
        <path class="cls-1" d="m145.23,133.2c.02.66.1.86.31.93.15.04.33.05.4.05.04,0,.06.02.06.05,0,.05-.05.06-.14.06-.46,0-.78-.02-.85-.02s-.41.02-.77.02c-.08,0-.13,0-.13-.06,0-.03.02-.05.06-.05.06,0,.21,0,.33-.05.2-.06.24-.29.24-1.02v-4.58c0-.31.03-.4.1-.4s.2.18.28.26c.12.14,1.31,1.42,2.54,2.74.79.85,1.66,1.82,1.92,2.09l-.09-4.06c0-.52-.06-.7-.31-.76-.14-.03-.33-.04-.39-.04-.06,0-.06-.02-.06-.06,0-.05.06-.06.16-.06.36,0,.74.02.83.02s.35-.02.68-.02c.09,0,.14,0,.14.06,0,.03-.03.06-.09.06-.04,0-.1,0-.19.02-.26.06-.3.23-.3.71l-.02,4.69c0,.53-.02.57-.07.57-.06,0-.16-.09-.58-.51-.09-.08-1.24-1.26-2.09-2.17-.93-1-1.83-2.01-2.09-2.29l.1,3.83Z"/>
        <path class="cls-1" d="m156.58,132.25c0-.65-.04-.74-.36-.82-.06-.02-.2-.02-.27-.02-.03,0-.06-.02-.06-.05,0-.05.04-.06.13-.06.36,0,.86.02.9.02s.54-.02.78-.02c.09,0,.13.02.13.06,0,.03-.03.05-.06.05-.06,0-.1,0-.2.02-.22.04-.28.18-.3.46-.02.26-.02.5-.02.83v.9c0,.36,0,.38-.1.43-.51.27-1.23.36-1.7.36-.61,0-1.74-.08-2.63-.86-.49-.42-.95-1.28-.95-2.28,0-1.28.62-2.18,1.34-2.63.72-.45,1.51-.5,2.13-.5.5,0,1.07.1,1.22.14.17.04.45.07.65.08.08,0,.1.04.1.07,0,.11-.06.34-.06,1.14,0,.13-.02.17-.07.17-.04,0-.05-.05-.06-.12,0-.11-.05-.34-.17-.53-.2-.3-.85-.65-1.88-.65-.5,0-1.1.05-1.71.53-.46.37-.79,1.1-.79,2.03,0,1.13.57,1.94.85,2.21.63.62,1.36.86,2.1.86.29,0,.7-.05.91-.17.1-.06.16-.14.16-.28v-1.36Z"/>
        <path class="cls-1" d="m167.75,131.97c0,.77,0,1.4.04,1.74.02.23.07.41.31.44.11.02.29.03.36.03.05,0,.06.02.06.05,0,.04-.04.06-.13.06-.44,0-.94-.02-.98-.02s-.54.02-.78.02c-.09,0-.13-.02-.13-.06,0-.02.02-.05.06-.05.07,0,.17-.02.24-.03.16-.03.2-.21.23-.44.04-.34.04-.97.04-1.74v-.84s-.02-.05-.05-.05h-3.39s-.05,0-.05.05v.84c0,.77,0,1.4.04,1.74.02.23.07.41.31.44.11.02.29.03.36.03.05,0,.06.02.06.05,0,.04-.04.06-.13.06-.44,0-.94-.02-.98-.02s-.54.02-.78.02c-.09,0-.13-.02-.13-.06,0-.02.02-.05.06-.05.07,0,.17-.02.24-.03.16-.03.2-.21.23-.44.04-.34.04-.97.04-1.74v-1.41c0-1.25,0-1.47-.02-1.73-.02-.27-.08-.4-.34-.46-.06-.02-.2-.02-.27-.02-.03,0-.06-.02-.06-.05,0-.05.04-.06.13-.06.36,0,.86.02.9.02s.54-.02.78-.02c.09,0,.13.02.13.06,0,.03-.03.05-.06.05-.06,0-.1,0-.2.02-.22.04-.28.18-.3.46-.02.26-.02.48-.02,1.73v.17s.02.05.05.05h3.39s.05,0,.05-.05v-.17c0-1.25,0-1.47-.02-1.73-.02-.27-.08-.4-.34-.46-.06-.02-.2-.02-.27-.02-.03,0-.06-.02-.06-.05,0-.05.04-.06.13-.06.36,0,.86.02.9.02s.54-.02.78-.02c.09,0,.13.02.13.06,0,.03-.03.05-.06.05-.06,0-.1,0-.2.02-.22.04-.28.18-.3.46-.02.26-.02.48-.02,1.73v1.41Z"/>
        <path class="cls-1" d="m172.96,128.13c1.8,0,3.14,1.14,3.14,3s-1.26,3.27-3.19,3.27c-2.19,0-3.1-1.7-3.1-3.14,0-1.3.94-3.13,3.15-3.13Zm.17,5.96c.72,0,2.21-.42,2.21-2.74,0-1.92-1.17-2.95-2.43-2.95-1.33,0-2.33.88-2.33,2.63,0,1.86,1.12,3.06,2.56,3.06Z"/>
        <path class="cls-1" d="m184.23,133.25c.03.29.09.74.43.85.23.07.44.07.52.07.04,0,.06,0,.06.04,0,.05-.07.07-.17.07-.18,0-1.04-.02-1.34-.05-.18-.02-.22-.04-.22-.08,0-.03.02-.05.06-.06.04,0,.05-.14.03-.29l-.38-4.13h-.02l-1.96,4.16c-.17.35-.19.42-.26.42-.06,0-.1-.08-.25-.37-.21-.39-.9-1.77-.94-1.85-.07-.14-.97-2.06-1.06-2.28h-.03l-.32,3.71c0,.13,0,.27,0,.41,0,.12.09.22.21.25.14.03.26.04.3.04.03,0,.06.02.06.04,0,.06-.05.07-.14.07-.3,0-.68-.02-.74-.02-.07,0-.46.02-.67.02-.08,0-.14-.02-.14-.07,0-.02.04-.04.08-.04.06,0,.12,0,.24-.02.26-.05.29-.36.32-.66l.58-5.21c0-.09.04-.14.09-.14s.08.03.12.12l2.45,5.03,2.35-5.02c.03-.07.06-.13.12-.13s.08.06.1.22l.54,4.91Z"/>
        <path class="cls-1" d="m187,130.56c0-1.25,0-1.47-.02-1.73-.02-.27-.08-.4-.34-.46-.06-.02-.2-.02-.27-.02-.03,0-.06-.02-.06-.05,0-.05.04-.06.13-.06.18,0,.4,0,.58,0l.33.02c.06,0,1.65,0,1.83,0,.15,0,.28-.02.34-.04.04,0,.07-.04.11-.04.02,0,.03.03.03.07,0,.06-.04.15-.06.38,0,.08-.02.43-.04.53,0,.04-.02.09-.06.09-.05,0-.06-.04-.06-.1,0-.06,0-.19-.05-.29-.06-.13-.14-.22-.57-.27-.14-.02-1.01-.02-1.1-.02-.03,0-.05.02-.05.08v2.21c0,.06,0,.08.05.08.1,0,1.09,0,1.27-.02.19-.02.3-.03.38-.11.06-.06.09-.1.12-.1.02,0,.04.02.04.06s-.04.18-.06.45c-.02.16-.03.46-.03.51,0,.06,0,.15-.06.15-.04,0-.06-.03-.06-.07,0-.08,0-.16-.03-.26-.03-.11-.1-.25-.42-.28-.22-.02-1.01-.04-1.14-.04-.04,0-.06.02-.06.06v.7c0,.27,0,1.2,0,1.37.02.55.14.66.93.66.21,0,.56,0,.77-.09s.3-.25.36-.58c.02-.09.03-.12.07-.12.05,0,.05.06.05.12,0,.06-.06.61-.1.78-.06.21-.12.21-.43.21-.6,0-1.04-.02-1.35-.02-.31-.02-.5-.02-.62-.02-.02,0-.15,0-.32,0-.16,0-.34.02-.46.02-.09,0-.13-.02-.13-.06,0-.02.02-.05.06-.05.07,0,.17-.02.24-.03.16-.03.2-.21.23-.44.04-.34.04-.97.04-1.74v-1.41Z"/>
      </g>
      <path class="cls-1" d="m102,203.23c.16.33.02.73-.32.89s-.73.02-.89-.32-.02-.73.32-.89.73-.02.89.32"/>
      <path class="cls-1" d="m102.14,208.64c.16.33.02.73-.32.89s-.73.02-.89-.32-.02-.73.32-.89.73-.02.89.32"/>
      <path class="cls-1" d="m100.99,213.53c.16.33.02.73-.32.89s-.73.02-.89-.32-.02-.73.32-.89.73-.02.89.32"/>
      <path class="cls-1" d="m104.46,206.98c.09.18,0,.41-.17.49s-.41,0-.49-.17,0-.41.17-.49.41,0,.49.17"/>
      <path class="cls-1" d="m101.53,210.53c.09.18,0,.41-.17.49s-.41,0-.49-.17-.01-.4.17-.49.41,0,.49.17"/>
      <path class="cls-1" d="m102.99,208.84c.16.33.02.73-.32.89s-.73.02-.89-.32-.02-.73.32-.89.73-.02.89.32"/>
      <path class="cls-1" d="m103.52,203.58c.16.33.02.73-.32.89s-.73.02-.89-.32-.02-.73.32-.89.73-.02.89.32"/>
      <path class="cls-1" d="m101.76,212.16c.16.33.02.73-.32.89s-.73.02-.89-.32-.02-.73.32-.89.73-.02.89.32"/>
      <path class="cls-1" d="m105.45,211.65c.16.33.02.73-.32.89s-.73.02-.89-.32-.02-.73.32-.89.73-.02.89.32"/>
      <path class="cls-1" d="m103.45,213.43c.16.33.02.73-.32.89s-.73.02-.89-.32-.02-.73.32-.89.73-.02.89.32"/>
    </g>
  </g>
</svg>